<?xml version="1.0" encoding="ISO8859-1"?>
<svg xmlns="http://www.w3.org/2000/svg" xmlns:xlink="http://www.w3.org/1999/xlink" width="288px" height="252px" viewBox="0 0 288 252" version="1.1" id="Fig:dens">
  <metadata xmlns:gridsvg="http://www.stat.auckland.ac.nz/~paul/R/gridSVG/">
    <gridsvg:generator name="gridSVG" version="1.7-4" time="2022-03-06 03:38:39"/>
    <gridsvg:argument name="name" value="Report_for_data_rma/dens.svg"/>
    <gridsvg:argument name="exportCoords" value="none"/>
    <gridsvg:argument name="exportMappings" value="none"/>
    <gridsvg:argument name="exportJS" value="none"/>
    <gridsvg:argument name="res" value="72"/>
    <gridsvg:argument name="prefix" value="Fig:dens"/>
    <gridsvg:argument name="addClasses" value="FALSE"/>
    <gridsvg:argument name="indent" value="TRUE"/>
    <gridsvg:argument name="htmlWrapper" value="FALSE"/>
    <gridsvg:argument name="usePaths" value="none"/>
    <gridsvg:argument name="uniqueNames" value="TRUE"/>
    <gridsvg:separator name="id.sep" value="."/>
    <gridsvg:separator name="gPath.sep" value="::"/>
    <gridsvg:separator name="vpPath.sep" value="::"/>
  </metadata>
  <g transform="translate(0, 252) scale(1, -1)">
    <g id="Fig:densgridSVG" fill="none" stroke="rgb(0,0,0)" stroke-dasharray="none" stroke-width="0.75" font-size="12" font-family="Helvetica, Arial, FreeSans, Liberation Sans, Nimbus Sans L, sans-serif" opacity="1" stroke-linecap="round" stroke-linejoin="round" stroke-miterlimit="10" stroke-opacity="1" fill-opacity="0" font-weight="normal" font-style="normal">
      <g id="Fig:densplot_01.background.1">
        <rect id="Fig:densplot_01.background.1.1" x="0" y="0" width="288" height="252" transform="" fill="none" stroke="none" stroke-opacity="0" fill-opacity="0"/>
      </g>
      <g id="Fig:densplot_01.toplevel.vp.1" font-size="12">
        <g id="Fig:densplot_01.ylab.vp.1">
          <g id="Fig:densplot_01.ylab.1">
            <g id="Fig:densplot_01.ylab.1.1" transform="translate(16.31, 141.09)" stroke-width="0.1">
              <g id="Fig:densplot_01.ylab.1.1.scale" transform="scale(1, -1)">
                <text x="0" y="0" id="Fig:densplot_01.ylab.1.1.text" transform="rotate(-90)" text-anchor="middle" opacity="1" stroke="rgb(0,0,0)" fill="rgb(0,0,0)" stroke-opacity="1" fill-opacity="1" font-size="12" font-weight="normal" font-style="normal">
                  <tspan id="Fig:densplot_01.ylab.1.1.tspan.1" dy="4.31" x="0">Density</tspan>
                </text>
              </g>
            </g>
          </g>
        </g>
        <g id="Fig:densplot_01.figure.vp.1"/>
        <defs>
          <clipPath id="Fig:densplot_01.panel.1.1.vp.1.clipPath">
            <rect x="50.8" y="48.19" width="225.2" height="185.81" fill="none" stroke="none"/>
          </clipPath>
        </defs>
        <g id="Fig:densplot_01.panel.1.1.vp.1" clip-path="url(#Fig:densplot_01.panel.1.1.vp.1.clipPath)"/>
        <g id="Fig:densplot_01.strip.1.1.off.vp.1"/>
        <g id="Fig:densplot_01.strip.left.1.1.off.vp.1">
          <g id="Fig:densplot_01.ticks.left.panel.1.1.1">
            <polyline id="Fig:densplot_01.ticks.left.panel.1.1.1.1" points="50.8,59.58 45.13,59.58" stroke="rgb(0,0,0)" opacity="1" stroke-dasharray="none" stroke-width="0.75" stroke-opacity="1" fill="none"/>
            <polyline id="Fig:densplot_01.ticks.left.panel.1.1.1.2" points="50.8,110.78 45.13,110.78" stroke="rgb(0,0,0)" opacity="1" stroke-dasharray="none" stroke-width="0.75" stroke-opacity="1" fill="none"/>
            <polyline id="Fig:densplot_01.ticks.left.panel.1.1.1.3" points="50.8,161.99 45.13,161.99" stroke="rgb(0,0,0)" opacity="1" stroke-dasharray="none" stroke-width="0.75" stroke-opacity="1" fill="none"/>
            <polyline id="Fig:densplot_01.ticks.left.panel.1.1.1.4" points="50.8,213.19 45.13,213.19" stroke="rgb(0,0,0)" opacity="1" stroke-dasharray="none" stroke-width="0.75" stroke-opacity="1" fill="none"/>
          </g>
          <g id="Fig:densplot_01.ticklabels.left.panel.1.1.1">
            <g id="Fig:densplot_01.ticklabels.left.panel.1.1.1.1" transform="translate(39.47, 59.58)" stroke-width="0.1">
              <g id="Fig:densplot_01.ticklabels.left.panel.1.1.1.1.scale" transform="scale(1, -1)">
                <text x="0" y="0" id="Fig:densplot_01.ticklabels.left.panel.1.1.1.1.text" transform="rotate(-90)" text-anchor="middle" stroke="rgb(0,0,0)" opacity="1" fill="rgb(0,0,0)" stroke-opacity="1" fill-opacity="1" font-size="9.6" font-weight="normal" font-style="normal">
                  <tspan id="Fig:densplot_01.ticklabels.left.panel.1.1.1.1.tspan.1" dy="0" x="0">0.00</tspan>
                </text>
              </g>
            </g>
            <g id="Fig:densplot_01.ticklabels.left.panel.1.1.1.2" transform="translate(39.47, 110.78)" stroke-width="0.1">
              <g id="Fig:densplot_01.ticklabels.left.panel.1.1.1.2.scale" transform="scale(1, -1)">
                <text x="0" y="0" id="Fig:densplot_01.ticklabels.left.panel.1.1.1.2.text" transform="rotate(-90)" text-anchor="middle" stroke="rgb(0,0,0)" opacity="1" fill="rgb(0,0,0)" stroke-opacity="1" fill-opacity="1" font-size="9.6" font-weight="normal" font-style="normal">
                  <tspan id="Fig:densplot_01.ticklabels.left.panel.1.1.1.2.tspan.1" dy="0" x="0">0.05</tspan>
                </text>
              </g>
            </g>
            <g id="Fig:densplot_01.ticklabels.left.panel.1.1.1.3" transform="translate(39.47, 161.99)" stroke-width="0.1">
              <g id="Fig:densplot_01.ticklabels.left.panel.1.1.1.3.scale" transform="scale(1, -1)">
                <text x="0" y="0" id="Fig:densplot_01.ticklabels.left.panel.1.1.1.3.text" transform="rotate(-90)" text-anchor="middle" stroke="rgb(0,0,0)" opacity="1" fill="rgb(0,0,0)" stroke-opacity="1" fill-opacity="1" font-size="9.6" font-weight="normal" font-style="normal">
                  <tspan id="Fig:densplot_01.ticklabels.left.panel.1.1.1.3.tspan.1" dy="0" x="0">0.10</tspan>
                </text>
              </g>
            </g>
            <g id="Fig:densplot_01.ticklabels.left.panel.1.1.1.4" transform="translate(39.47, 213.19)" stroke-width="0.1">
              <g id="Fig:densplot_01.ticklabels.left.panel.1.1.1.4.scale" transform="scale(1, -1)">
                <text x="0" y="0" id="Fig:densplot_01.ticklabels.left.panel.1.1.1.4.text" transform="rotate(-90)" text-anchor="middle" stroke="rgb(0,0,0)" opacity="1" fill="rgb(0,0,0)" stroke-opacity="1" fill-opacity="1" font-size="9.6" font-weight="normal" font-style="normal">
                  <tspan id="Fig:densplot_01.ticklabels.left.panel.1.1.1.4.tspan.1" dy="0" x="0">0.15</tspan>
                </text>
              </g>
            </g>
          </g>
        </g>
        <g id="Fig:densplot_01.panel.1.1.off.vp.1">
          <g id="Fig:densplot_01.ticks.bottom.panel.1.1.1">
            <polyline id="Fig:densplot_01.ticks.bottom.panel.1.1.1.1" points="83.41,48.19 83.41,42.52" stroke="rgb(0,0,0)" opacity="1" stroke-dasharray="none" stroke-width="0.75" stroke-opacity="1" fill="none"/>
            <polyline id="Fig:densplot_01.ticks.bottom.panel.1.1.1.2" points="116.7,48.19 116.7,42.52" stroke="rgb(0,0,0)" opacity="1" stroke-dasharray="none" stroke-width="0.75" stroke-opacity="1" fill="none"/>
            <polyline id="Fig:densplot_01.ticks.bottom.panel.1.1.1.3" points="149.98,48.19 149.98,42.52" stroke="rgb(0,0,0)" opacity="1" stroke-dasharray="none" stroke-width="0.75" stroke-opacity="1" fill="none"/>
            <polyline id="Fig:densplot_01.ticks.bottom.panel.1.1.1.4" points="183.27,48.19 183.27,42.52" stroke="rgb(0,0,0)" opacity="1" stroke-dasharray="none" stroke-width="0.75" stroke-opacity="1" fill="none"/>
            <polyline id="Fig:densplot_01.ticks.bottom.panel.1.1.1.5" points="216.55,48.19 216.55,42.52" stroke="rgb(0,0,0)" opacity="1" stroke-dasharray="none" stroke-width="0.75" stroke-opacity="1" fill="none"/>
            <polyline id="Fig:densplot_01.ticks.bottom.panel.1.1.1.6" points="249.84,48.19 249.84,42.52" stroke="rgb(0,0,0)" opacity="1" stroke-dasharray="none" stroke-width="0.75" stroke-opacity="1" fill="none"/>
          </g>
          <g id="Fig:densplot_01.ticklabels.bottom.panel.1.1.1">
            <g id="Fig:densplot_01.ticklabels.bottom.panel.1.1.1.1" transform="translate(83.41, 36.85)" stroke-width="0.1">
              <g id="Fig:densplot_01.ticklabels.bottom.panel.1.1.1.1.scale" transform="scale(1, -1)">
                <text x="0" y="0" id="Fig:densplot_01.ticklabels.bottom.panel.1.1.1.1.text" text-anchor="middle" stroke="rgb(0,0,0)" opacity="1" fill="rgb(0,0,0)" stroke-opacity="1" fill-opacity="1" font-size="9.6" font-weight="normal" font-style="normal">
                  <tspan id="Fig:densplot_01.ticklabels.bottom.panel.1.1.1.1.tspan.1" dy="7.18" x="0">2</tspan>
                </text>
              </g>
            </g>
            <g id="Fig:densplot_01.ticklabels.bottom.panel.1.1.1.2" transform="translate(116.7, 36.85)" stroke-width="0.1">
              <g id="Fig:densplot_01.ticklabels.bottom.panel.1.1.1.2.scale" transform="scale(1, -1)">
                <text x="0" y="0" id="Fig:densplot_01.ticklabels.bottom.panel.1.1.1.2.text" text-anchor="middle" stroke="rgb(0,0,0)" opacity="1" fill="rgb(0,0,0)" stroke-opacity="1" fill-opacity="1" font-size="9.6" font-weight="normal" font-style="normal">
                  <tspan id="Fig:densplot_01.ticklabels.bottom.panel.1.1.1.2.tspan.1" dy="7.18" x="0">4</tspan>
                </text>
              </g>
            </g>
            <g id="Fig:densplot_01.ticklabels.bottom.panel.1.1.1.3" transform="translate(149.98, 36.85)" stroke-width="0.1">
              <g id="Fig:densplot_01.ticklabels.bottom.panel.1.1.1.3.scale" transform="scale(1, -1)">
                <text x="0" y="0" id="Fig:densplot_01.ticklabels.bottom.panel.1.1.1.3.text" text-anchor="middle" stroke="rgb(0,0,0)" opacity="1" fill="rgb(0,0,0)" stroke-opacity="1" fill-opacity="1" font-size="9.6" font-weight="normal" font-style="normal">
                  <tspan id="Fig:densplot_01.ticklabels.bottom.panel.1.1.1.3.tspan.1" dy="7.18" x="0">6</tspan>
                </text>
              </g>
            </g>
            <g id="Fig:densplot_01.ticklabels.bottom.panel.1.1.1.4" transform="translate(183.27, 36.85)" stroke-width="0.1">
              <g id="Fig:densplot_01.ticklabels.bottom.panel.1.1.1.4.scale" transform="scale(1, -1)">
                <text x="0" y="0" id="Fig:densplot_01.ticklabels.bottom.panel.1.1.1.4.text" text-anchor="middle" stroke="rgb(0,0,0)" opacity="1" fill="rgb(0,0,0)" stroke-opacity="1" fill-opacity="1" font-size="9.6" font-weight="normal" font-style="normal">
                  <tspan id="Fig:densplot_01.ticklabels.bottom.panel.1.1.1.4.tspan.1" dy="7.18" x="0">8</tspan>
                </text>
              </g>
            </g>
            <g id="Fig:densplot_01.ticklabels.bottom.panel.1.1.1.5" transform="translate(216.55, 36.85)" stroke-width="0.1">
              <g id="Fig:densplot_01.ticklabels.bottom.panel.1.1.1.5.scale" transform="scale(1, -1)">
                <text x="0" y="0" id="Fig:densplot_01.ticklabels.bottom.panel.1.1.1.5.text" text-anchor="middle" stroke="rgb(0,0,0)" opacity="1" fill="rgb(0,0,0)" stroke-opacity="1" fill-opacity="1" font-size="9.6" font-weight="normal" font-style="normal">
                  <tspan id="Fig:densplot_01.ticklabels.bottom.panel.1.1.1.5.tspan.1" dy="7.18" x="0">10</tspan>
                </text>
              </g>
            </g>
            <g id="Fig:densplot_01.ticklabels.bottom.panel.1.1.1.6" transform="translate(249.84, 36.85)" stroke-width="0.1">
              <g id="Fig:densplot_01.ticklabels.bottom.panel.1.1.1.6.scale" transform="scale(1, -1)">
                <text x="0" y="0" id="Fig:densplot_01.ticklabels.bottom.panel.1.1.1.6.text" text-anchor="middle" stroke="rgb(0,0,0)" opacity="1" fill="rgb(0,0,0)" stroke-opacity="1" fill-opacity="1" font-size="9.6" font-weight="normal" font-style="normal">
                  <tspan id="Fig:densplot_01.ticklabels.bottom.panel.1.1.1.6.tspan.1" dy="7.18" x="0">12</tspan>
                </text>
              </g>
            </g>
          </g>
        </g>
        <defs>
          <clipPath id="Fig:densplot_01.panel.1.1.vp.2.clipPath">
            <rect x="50.8" y="48.19" width="225.2" height="185.81" fill="none" stroke="none"/>
          </clipPath>
        </defs>
        <g id="Fig:densplot_01.panel.1.1.vp.2" clip-path="url(#Fig:densplot_01.panel.1.1.vp.2.clipPath)">
          <g id="Fig:densplot_01.xyplot.lines.group.1.panel.1.1.1">
            <polyline id="Fig:densplot_01.xyplot.lines.group.1.panel.1.1.1.1" points="64.8,59.6 65.19,59.62 65.58,59.63 65.96,59.65 66.35,59.67 66.73,59.71 67.12,59.75 67.51,59.8 67.89,59.87 68.28,59.95 68.66,60.06 69.05,60.19 69.43,60.36 69.82,60.56 70.21,60.81 70.59,61.1 70.98,61.46 71.36,61.88 71.75,62.4 72.14,63 72.52,63.7 72.91,64.51 73.29,65.44 73.68,66.51 74.07,67.73 74.45,69.13 74.84,70.69 75.22,72.44 75.61,74.37 76,76.49 76.38,78.82 76.77,81.38 77.15,84.16 77.54,87.15 77.93,90.34 78.31,93.74 78.7,97.33 79.08,101.11 79.47,105.1 79.86,109.25 80.24,113.54 80.63,117.95 81.01,122.48 81.4,127.09 81.78,131.77 82.17,136.49 82.56,141.23 82.94,145.97 83.33,150.67 83.71,155.33 84.1,159.91 84.49,164.4 84.87,168.76 85.26,172.99 85.64,177.07 86.03,180.99 86.42,184.75 86.8,188.32 87.19,191.68 87.57,194.82 87.96,197.76 88.35,200.5 88.73,203.02 89.12,205.34 89.5,207.45 89.89,209.33 90.28,211 90.66,212.47 91.05,213.76 91.43,214.86 91.82,215.8 92.21,216.57 92.59,217.15 92.98,217.59 93.36,217.9 93.75,218.09 94.14,218.16 94.52,218.14 94.91,218.02 95.29,217.81 95.68,217.54 96.06,217.21 96.45,216.83 96.84,216.41 97.22,215.96 97.61,215.48 97.99,214.98 98.38,214.47 98.77,213.94 99.15,213.42 99.54,212.89 99.92,212.36 100.31,211.82 100.7,211.29 101.08,210.76 101.47,210.23 101.85,209.71 102.24,209.18 102.63,208.65 103.01,208.12 103.4,207.6 103.78,207.08 104.17,206.57 104.56,206.06 104.94,205.56 105.33,205.07 105.71,204.6 106.1,204.15 106.49,203.72 106.87,203.31 107.26,202.93 107.64,202.58 108.03,202.25 108.41,201.97 108.8,201.72 109.19,201.51 109.57,201.34 109.96,201.2 110.34,201.09 110.73,201.02 111.12,200.99 111.5,200.99 111.89,201.03 112.27,201.09 112.66,201.18 113.05,201.29 113.43,201.43 113.82,201.6 114.2,201.78 114.59,201.98 114.98,202.2 115.36,202.43 115.75,202.68 116.13,202.93 116.52,203.2 116.91,203.47 117.29,203.75 117.68,204.04 118.06,204.32 118.45,204.62 118.84,204.91 119.22,205.2 119.61,205.5 119.99,205.79 120.38,206.08 120.76,206.37 121.15,206.66 121.54,206.95 121.92,207.23 122.31,207.51 122.69,207.78 123.08,208.06 123.47,208.32 123.85,208.58 124.24,208.83 124.62,209.07 125.01,209.3 125.4,209.52 125.78,209.72 126.17,209.91 126.55,210.08 126.94,210.22 127.33,210.35 127.71,210.45 128.1,210.53 128.48,210.59 128.87,210.62 129.26,210.62 129.64,210.6 130.03,210.56 130.41,210.49 130.8,210.4 131.19,210.3 131.57,210.17 131.96,210.03 132.34,209.87 132.73,209.7 133.12,209.51 133.5,209.32 133.89,209.12 134.27,208.9 134.66,208.68 135.04,208.45 135.43,208.2 135.82,207.95 136.2,207.69 136.59,207.41 136.97,207.13 137.36,206.83 137.75,206.52 138.13,206.19 138.52,205.85 138.9,205.5 139.29,205.13 139.68,204.76 140.06,204.36 140.45,203.95 140.83,203.54 141.22,203.11 141.61,202.67 141.99,202.23 142.38,201.77 142.76,201.31 143.15,200.83 143.54,200.35 143.92,199.86 144.31,199.37 144.69,198.86 145.08,198.34 145.47,197.82 145.85,197.28 146.24,196.73 146.62,196.16 147.01,195.59 147.39,195 147.78,194.39 148.17,193.77 148.55,193.13 148.94,192.48 149.32,191.82 149.71,191.15 150.1,190.46 150.48,189.76 150.87,189.05 151.25,188.33 151.64,187.61 152.03,186.87 152.41,186.13 152.8,185.39 153.18,184.64 153.57,183.88 153.96,183.13 154.34,182.37 154.73,181.61 155.11,180.85 155.5,180.09 155.89,179.33 156.27,178.58 156.66,177.82 157.04,177.07 157.43,176.33 157.82,175.59 158.2,174.86 158.59,174.14 158.97,173.43 159.36,172.72 159.75,172.02 160.13,171.34 160.52,170.66 160.9,169.99 161.29,169.34 161.67,168.7 162.06,168.07 162.45,167.45 162.83,166.84 163.22,166.25 163.6,165.67 163.99,165.11 164.38,164.57 164.76,164.03 165.15,163.51 165.53,163.01 165.92,162.52 166.31,162.05 166.69,161.59 167.08,161.14 167.46,160.7 167.85,160.27 168.24,159.85 168.62,159.43 169.01,159.02 169.39,158.61 169.78,158.21 170.17,157.8 170.55,157.4 170.94,157 171.32,156.61 171.71,156.21 172.1,155.83 172.48,155.44 172.87,155.06 173.25,154.69 173.64,154.33 174.02,153.98 174.41,153.64 174.8,153.31 175.18,153 175.57,152.69 175.95,152.4 176.34,152.12 176.73,151.85 177.11,151.59 177.5,151.34 177.88,151.1 178.27,150.87 178.66,150.64 179.04,150.43 179.43,150.21 179.81,150 180.2,149.8 180.59,149.6 180.97,149.41 181.36,149.22 181.74,149.03 182.13,148.85 182.52,148.68 182.9,148.51 183.29,148.35 183.67,148.19 184.06,148.03 184.45,147.89 184.83,147.74 185.22,147.6 185.6,147.47 185.99,147.33 186.37,147.2 186.76,147.06 187.15,146.92 187.53,146.78 187.92,146.62 188.3,146.46 188.69,146.29 189.08,146.1 189.46,145.89 189.85,145.67 190.23,145.42 190.62,145.14 191.01,144.85 191.39,144.52 191.78,144.17 192.16,143.8 192.55,143.4 192.94,142.96 193.32,142.51 193.71,142.03 194.09,141.53 194.48,141.01 194.87,140.47 195.25,139.91 195.64,139.35 196.02,138.77 196.41,138.19 196.8,137.6 197.18,137.01 197.57,136.41 197.95,135.82 198.34,135.23 198.73,134.65 199.11,134.07 199.5,133.5 199.88,132.93 200.27,132.37 200.65,131.83 201.04,131.29 201.43,130.76 201.81,130.24 202.2,129.73 202.58,129.23 202.97,128.74 203.36,128.27 203.74,127.8 204.13,127.34 204.51,126.9 204.9,126.46 205.29,126.03 205.67,125.61 206.06,125.19 206.44,124.78 206.83,124.37 207.22,123.96 207.6,123.55 207.99,123.14 208.37,122.73 208.76,122.31 209.15,121.89 209.53,121.46 209.92,121.02 210.3,120.57 210.69,120.11 211.08,119.65 211.46,119.17 211.85,118.68 212.23,118.18 212.62,117.67 213,117.15 213.39,116.62 213.78,116.08 214.16,115.53 214.55,114.98 214.93,114.42 215.32,113.85 215.71,113.28 216.09,112.7 216.48,112.12 216.86,111.54 217.25,110.96 217.64,110.38 218.02,109.81 218.41,109.23 218.79,108.66 219.18,108.09 219.57,107.53 219.95,106.97 220.34,106.42 220.72,105.87 221.11,105.33 221.5,104.8 221.88,104.28 222.27,103.76 222.65,103.25 223.04,102.74 223.43,102.24 223.81,101.74 224.2,101.24 224.58,100.75 224.97,100.26 225.36,99.77 225.74,99.29 226.13,98.8 226.51,98.32 226.9,97.84 227.28,97.37 227.67,96.89 228.06,96.42 228.44,95.96 228.83,95.5 229.21,95.04 229.6,94.59 229.99,94.15 230.37,93.72 230.76,93.29 231.14,92.87 231.53,92.46 231.92,92.06 232.3,91.67 232.69,91.28 233.07,90.9 233.46,90.52 233.85,90.15 234.23,89.79 234.62,89.42 235,89.06 235.39,88.69 235.78,88.32 236.16,87.96 236.55,87.58 236.93,87.2 237.32,86.82 237.71,86.43 238.09,86.03 238.48,85.63 238.86,85.22 239.25,84.8 239.63,84.37 240.02,83.93 240.41,83.49 240.79,83.03 241.18,82.56 241.56,82.09 241.95,81.6 242.34,81.1 242.72,80.58 243.11,80.05 243.49,79.51 243.88,78.94 244.27,78.37 244.65,77.77 245.04,77.15 245.42,76.52 245.81,75.86 246.2,75.18 246.58,74.49 246.97,73.79 247.35,73.07 247.74,72.34 248.13,71.6 248.51,70.86 248.9,70.12 249.28,69.38 249.67,68.65 250.06,67.93 250.44,67.23 250.83,66.56 251.21,65.91 251.6,65.28 251.99,64.69 252.37,64.13 252.76,63.61 253.14,63.13 253.53,62.68 253.91,62.28 254.3,61.91 254.69,61.58 255.07,61.28 255.46,61.02 255.84,60.79 256.23,60.59 256.62,60.42 257,60.27 257.39,60.14 257.77,60.03 258.16,59.94 258.55,59.87 258.93,59.81 259.32,59.76 259.7,59.72 260.09,59.69 260.48,59.66 260.86,59.64 261.25,59.63 261.63,59.61 262.02,59.6" stroke-dasharray="none" stroke="rgb(31,120,180)" stroke-width="0.75" opacity="1" stroke-opacity="1" fill="none"/>
          </g>
          <g id="Fig:densplot_01.xyplot.lines.group.2.panel.1.1.1">
            <polyline id="Fig:densplot_01.xyplot.lines.group.2.panel.1.1.1.1" points="64.63,59.61 65.02,59.62 65.4,59.64 65.79,59.66 66.18,59.69 66.56,59.73 66.95,59.78 67.34,59.84 67.72,59.92 68.11,60.02 68.5,60.15 68.88,60.3 69.27,60.49 69.66,60.72 70.04,61.01 70.43,61.35 70.82,61.76 71.2,62.25 71.59,62.82 71.98,63.49 72.36,64.29 72.75,65.21 73.14,66.27 73.52,67.48 73.91,68.84 74.3,70.37 74.68,72.12 75.07,74.07 75.46,76.22 75.84,78.58 76.23,81.16 76.62,83.96 77,86.98 77.39,90.26 77.78,93.76 78.16,97.46 78.55,101.37 78.94,105.46 79.32,109.72 79.71,114.15 80.09,118.74 80.48,123.45 80.87,128.24 81.25,133.1 81.64,138 82.03,142.93 82.41,147.85 82.8,152.73 83.19,157.56 83.57,162.3 83.96,166.94 84.35,171.45 84.73,175.83 85.12,180.02 85.51,184.03 85.89,187.84 86.28,191.46 86.67,194.86 87.05,198.05 87.44,201.02 87.83,203.73 88.21,206.2 88.6,208.46 88.99,210.49 89.37,212.31 89.76,213.92 90.15,215.32 90.53,216.48 90.92,217.46 91.31,218.27 91.69,218.91 92.08,219.39 92.47,219.74 92.85,219.94 93.24,220.02 93.62,219.99 94.01,219.87 94.4,219.67 94.78,219.4 95.17,219.07 95.56,218.69 95.94,218.27 96.33,217.83 96.72,217.36 97.1,216.87 97.49,216.37 97.88,215.87 98.26,215.36 98.65,214.85 99.04,214.33 99.42,213.82 99.81,213.31 100.2,212.79 100.58,212.28 100.97,211.77 101.36,211.25 101.74,210.74 102.13,210.22 102.52,209.7 102.9,209.18 103.29,208.66 103.68,208.14 104.06,207.63 104.45,207.12 104.84,206.61 105.22,206.12 105.61,205.63 106,205.16 106.38,204.7 106.77,204.26 107.16,203.83 107.54,203.43 107.93,203.04 108.31,202.69 108.7,202.36 109.09,202.06 109.47,201.79 109.86,201.56 110.25,201.35 110.63,201.19 111.02,201.06 111.41,200.98 111.79,200.94 112.18,200.95 112.57,200.99 112.95,201.07 113.34,201.19 113.73,201.36 114.11,201.56 114.5,201.79 114.89,202.06 115.27,202.34 115.66,202.65 116.05,202.98 116.43,203.32 116.82,203.66 117.21,204 117.59,204.34 117.98,204.67 118.37,204.99 118.75,205.3 119.14,205.58 119.53,205.84 119.91,206.07 120.3,206.28 120.69,206.46 121.07,206.62 121.46,206.75 121.84,206.85 122.23,206.93 122.62,206.99 123,207.04 123.39,207.07 123.78,207.09 124.16,207.1 124.55,207.1 124.94,207.1 125.32,207.09 125.71,207.09 126.1,207.09 126.48,207.09 126.87,207.09 127.26,207.09 127.64,207.1 128.03,207.1 128.42,207.1 128.8,207.1 129.19,207.09 129.58,207.06 129.96,207.03 130.35,206.97 130.74,206.9 131.12,206.8 131.51,206.68 131.9,206.54 132.28,206.36 132.67,206.15 133.06,205.92 133.44,205.65 133.83,205.36 134.22,205.03 134.6,204.68 134.99,204.3 135.38,203.89 135.76,203.47 136.15,203.02 136.53,202.55 136.92,202.06 137.31,201.56 137.69,201.04 138.08,200.51 138.47,199.97 138.85,199.42 139.24,198.86 139.63,198.29 140.01,197.72 140.4,197.14 140.79,196.55 141.17,195.96 141.56,195.37 141.95,194.77 142.33,194.17 142.72,193.57 143.11,192.96 143.49,192.35 143.88,191.74 144.27,191.13 144.65,190.51 145.04,189.9 145.43,189.28 145.81,188.65 146.2,188.03 146.59,187.4 146.97,186.78 147.36,186.14 147.75,185.51 148.13,184.88 148.52,184.24 148.91,183.6 149.29,182.96 149.68,182.31 150.07,181.66 150.45,181.02 150.84,180.36 151.22,179.71 151.61,179.06 152,178.4 152.38,177.75 152.77,177.09 153.16,176.44 153.54,175.79 153.93,175.14 154.32,174.5 154.7,173.87 155.09,173.25 155.48,172.63 155.86,172.03 156.25,171.45 156.64,170.89 157.02,170.34 157.41,169.81 157.8,169.31 158.18,168.83 158.57,168.37 158.96,167.94 159.34,167.53 159.73,167.14 160.12,166.77 160.5,166.42 160.89,166.09 161.28,165.77 161.66,165.46 162.05,165.16 162.44,164.86 162.82,164.56 163.21,164.27 163.6,163.97 163.98,163.66 164.37,163.35 164.75,163.03 165.14,162.71 165.53,162.38 165.91,162.04 166.3,161.69 166.69,161.34 167.07,160.98 167.46,160.62 167.85,160.27 168.23,159.91 168.62,159.56 169.01,159.21 169.39,158.87 169.78,158.54 170.17,158.22 170.55,157.92 170.94,157.62 171.33,157.34 171.71,157.08 172.1,156.83 172.49,156.59 172.87,156.37 173.26,156.16 173.65,155.97 174.03,155.78 174.42,155.62 174.81,155.46 175.19,155.31 175.58,155.17 175.97,155.03 176.35,154.9 176.74,154.78 177.13,154.65 177.51,154.52 177.9,154.39 178.29,154.26 178.67,154.12 179.06,153.98 179.44,153.83 179.83,153.66 180.22,153.49 180.6,153.31 180.99,153.12 181.38,152.93 181.76,152.72 182.15,152.51 182.54,152.29 182.92,152.07 183.31,151.84 183.7,151.61 184.08,151.38 184.47,151.15 184.86,150.92 185.24,150.7 185.63,150.47 186.02,150.25 186.4,150.03 186.79,149.81 187.18,149.59 187.56,149.37 187.95,149.15 188.34,148.92 188.72,148.69 189.11,148.45 189.5,148.2 189.88,147.94 190.27,147.67 190.66,147.38 191.04,147.07 191.43,146.74 191.82,146.39 192.2,146.02 192.59,145.63 192.98,145.21 193.36,144.76 193.75,144.3 194.13,143.81 194.52,143.3 194.91,142.77 195.29,142.21 195.68,141.64 196.07,141.05 196.45,140.45 196.84,139.84 197.23,139.22 197.61,138.59 198,137.95 198.39,137.31 198.77,136.68 199.16,136.04 199.55,135.41 199.93,134.79 200.32,134.17 200.71,133.56 201.09,132.97 201.48,132.38 201.87,131.81 202.25,131.25 202.64,130.71 203.03,130.18 203.41,129.66 203.8,129.16 204.19,128.67 204.57,128.2 204.96,127.73 205.35,127.27 205.73,126.82 206.12,126.38 206.51,125.95 206.89,125.51 207.28,125.08 207.66,124.65 208.05,124.21 208.44,123.77 208.82,123.33 209.21,122.88 209.6,122.42 209.98,121.95 210.37,121.48 210.76,120.99 211.14,120.49 211.53,119.99 211.92,119.47 212.3,118.95 212.69,118.42 213.08,117.88 213.46,117.33 213.85,116.78 214.24,116.22 214.62,115.66 215.01,115.1 215.4,114.53 215.78,113.96 216.17,113.39 216.56,112.82 216.94,112.24 217.33,111.67 217.72,111.1 218.1,110.53 218.49,109.96 218.88,109.39 219.26,108.82 219.65,108.25 220.04,107.68 220.42,107.12 220.81,106.56 221.2,106 221.58,105.44 221.97,104.88 222.35,104.33 222.74,103.78 223.13,103.23 223.51,102.68 223.9,102.14 224.29,101.6 224.67,101.06 225.06,100.53 225.45,100 225.83,99.48 226.22,98.95 226.61,98.44 226.99,97.93 227.38,97.43 227.77,96.93 228.15,96.45 228.54,95.97 228.93,95.5 229.31,95.04 229.7,94.59 230.09,94.15 230.47,93.73 230.86,93.31 231.25,92.9 231.63,92.5 232.02,92.11 232.41,91.73 232.79,91.35 233.18,90.98 233.57,90.61 233.95,90.24 234.34,89.88 234.73,89.51 235.11,89.14 235.5,88.77 235.88,88.4 236.27,88.02 236.66,87.64 237.04,87.24 237.43,86.85 237.82,86.44 238.2,86.03 238.59,85.62 238.98,85.19 239.36,84.76 239.75,84.32 240.14,83.88 240.52,83.43 240.91,82.97 241.3,82.5 241.68,82.02 242.07,81.52 242.46,81.02 242.84,80.5 243.23,79.97 243.62,79.42 244,78.85 244.39,78.26 244.78,77.65 245.16,77.02 245.55,76.37 245.94,75.7 246.32,75.02 246.71,74.31 247.1,73.59 247.48,72.85 247.87,72.1 248.26,71.35 248.64,70.59 249.03,69.84 249.42,69.09 249.8,68.36 250.19,67.64 250.57,66.94 250.96,66.27 251.35,65.62 251.73,65 252.12,64.42 252.51,63.88 252.89,63.37 253.28,62.91 253.67,62.48 254.05,62.09 254.44,61.74 254.83,61.42 255.21,61.14 255.6,60.9 255.99,60.69 256.37,60.5 256.76,60.34 257.15,60.2 257.53,60.08 257.92,59.99 258.31,59.91 258.69,59.84 259.08,59.79 259.47,59.74 259.85,59.7 260.24,59.67 260.63,59.65 261.01,59.63 261.4,59.62 261.79,59.61 262.17,59.6" stroke-dasharray="none" stroke="rgb(31,120,180)" stroke-width="0.75" opacity="1" stroke-opacity="1" fill="none"/>
          </g>
          <g id="Fig:densplot_01.xyplot.lines.group.3.panel.1.1.1">
            <polyline id="Fig:densplot_01.xyplot.lines.group.3.panel.1.1.1.1" points="64.96,59.6 65.34,59.61 65.73,59.62 66.11,59.64 66.5,59.66 66.88,59.69 67.27,59.73 67.65,59.78 68.04,59.84 68.43,59.92 68.81,60.02 69.2,60.14 69.58,60.29 69.97,60.48 70.35,60.71 70.74,60.99 71.12,61.31 71.51,61.71 71.9,62.19 72.28,62.75 72.67,63.41 73.05,64.17 73.44,65.04 73.82,66.04 74.21,67.19 74.59,68.51 74.98,69.99 75.36,71.64 75.75,73.46 76.14,75.48 76.52,77.69 76.91,80.13 77.29,82.78 77.68,85.64 78.06,88.7 78.45,91.96 78.83,95.41 79.22,99.06 79.61,102.92 79.99,106.94 80.38,111.11 80.76,115.42 81.15,119.84 81.53,124.37 81.92,128.97 82.3,133.65 82.69,138.35 83.08,143.07 83.46,147.77 83.85,152.45 84.23,157.07 84.62,161.62 85,166.06 85.39,170.39 85.77,174.59 86.16,178.64 86.55,182.54 86.93,186.27 87.32,189.81 87.7,193.14 88.09,196.27 88.47,199.21 88.86,201.95 89.24,204.48 89.63,206.81 90.01,208.91 90.4,210.8 90.79,212.49 91.17,213.99 91.56,215.31 91.94,216.44 92.33,217.41 92.71,218.18 93.1,218.8 93.48,219.27 93.87,219.61 94.26,219.83 94.64,219.94 95.03,219.94 95.41,219.83 95.8,219.64 96.18,219.38 96.57,219.07 96.95,218.7 97.34,218.29 97.73,217.84 98.11,217.36 98.5,216.86 98.88,216.35 99.27,215.82 99.65,215.29 100.04,214.76 100.42,214.22 100.81,213.69 101.2,213.16 101.58,212.64 101.97,212.12 102.35,211.62 102.74,211.12 103.12,210.63 103.51,210.15 103.89,209.67 104.28,209.21 104.66,208.76 105.05,208.32 105.44,207.89 105.82,207.47 106.21,207.06 106.59,206.67 106.98,206.29 107.36,205.93 107.75,205.58 108.13,205.24 108.52,204.93 108.91,204.64 109.29,204.36 109.68,204.11 110.06,203.88 110.45,203.67 110.83,203.48 111.22,203.33 111.6,203.19 111.99,203.09 112.38,203.01 112.76,202.95 113.15,202.93 113.53,202.93 113.92,202.96 114.3,203.01 114.69,203.09 115.07,203.2 115.46,203.33 115.85,203.48 116.23,203.66 116.62,203.86 117,204.08 117.39,204.32 117.77,204.57 118.16,204.84 118.54,205.12 118.93,205.41 119.31,205.71 119.7,206.02 120.09,206.33 120.47,206.63 120.86,206.94 121.24,207.24 121.63,207.52 122.01,207.8 122.4,208.06 122.78,208.31 123.17,208.54 123.56,208.75 123.94,208.94 124.33,209.11 124.71,209.26 125.1,209.39 125.48,209.49 125.87,209.58 126.25,209.65 126.64,209.71 127.03,209.74 127.41,209.77 127.8,209.78 128.18,209.77 128.57,209.76 128.95,209.74 129.34,209.7 129.72,209.66 130.11,209.61 130.5,209.55 130.88,209.48 131.27,209.4 131.65,209.31 132.04,209.21 132.42,209.09 132.81,208.96 133.19,208.82 133.58,208.66 133.96,208.49 134.35,208.3 134.74,208.09 135.12,207.86 135.51,207.61 135.89,207.33 136.28,207.04 136.66,206.73 137.05,206.4 137.43,206.04 137.82,205.67 138.21,205.27 138.59,204.86 138.98,204.42 139.36,203.97 139.75,203.51 140.13,203.03 140.52,202.53 140.9,202.03 141.29,201.51 141.68,200.99 142.06,200.46 142.45,199.92 142.83,199.37 143.22,198.82 143.6,198.27 143.99,197.71 144.37,197.16 144.76,196.6 145.15,196.03 145.53,195.47 145.92,194.91 146.3,194.34 146.69,193.77 147.07,193.2 147.46,192.63 147.84,192.05 148.23,191.47 148.61,190.89 149,190.3 149.39,189.71 149.77,189.1 150.16,188.5 150.54,187.88 150.93,187.25 151.31,186.62 151.7,185.98 152.08,185.32 152.47,184.66 152.86,183.99 153.24,183.3 153.63,182.61 154.01,181.91 154.4,181.2 154.78,180.49 155.17,179.77 155.55,179.05 155.94,178.32 156.33,177.59 156.71,176.87 157.1,176.15 157.48,175.43 157.87,174.71 158.25,174.01 158.64,173.31 159.02,172.62 159.41,171.95 159.8,171.28 160.18,170.63 160.57,169.99 160.95,169.36 161.34,168.75 161.72,168.16 162.11,167.58 162.49,167.01 162.88,166.46 163.27,165.92 163.65,165.4 164.04,164.9 164.42,164.41 164.81,163.94 165.19,163.47 165.58,163.02 165.96,162.58 166.35,162.16 166.73,161.75 167.12,161.34 167.51,160.95 167.89,160.56 168.28,160.18 168.66,159.8 169.05,159.43 169.43,159.07 169.82,158.71 170.2,158.36 170.59,158.01 170.98,157.66 171.36,157.31 171.75,156.97 172.13,156.63 172.52,156.3 172.9,155.97 173.29,155.64 173.67,155.31 174.06,154.99 174.45,154.68 174.83,154.37 175.22,154.07 175.6,153.78 175.99,153.49 176.37,153.22 176.76,152.95 177.14,152.69 177.53,152.44 177.92,152.2 178.3,151.96 178.69,151.74 179.07,151.53 179.46,151.33 179.84,151.13 180.23,150.95 180.61,150.77 181,150.59 181.38,150.43 181.77,150.26 182.16,150.1 182.54,149.94 182.93,149.79 183.31,149.63 183.7,149.47 184.08,149.3 184.47,149.14 184.85,148.96 185.24,148.79 185.63,148.6 186.01,148.41 186.4,148.22 186.78,148.02 187.17,147.81 187.55,147.59 187.94,147.37 188.32,147.14 188.71,146.9 189.1,146.65 189.48,146.39 189.87,146.12 190.25,145.83 190.64,145.54 191.02,145.22 191.41,144.9 191.79,144.55 192.18,144.19 192.57,143.81 192.95,143.4 193.34,142.98 193.72,142.53 194.11,142.06 194.49,141.58 194.88,141.07 195.26,140.55 195.65,140.01 196.03,139.46 196.42,138.9 196.81,138.32 197.19,137.74 197.58,137.16 197.96,136.58 198.35,136 198.73,135.42 199.12,134.84 199.5,134.28 199.89,133.73 200.28,133.18 200.66,132.65 201.05,132.14 201.43,131.63 201.82,131.14 202.2,130.67 202.59,130.2 202.97,129.75 203.36,129.3 203.75,128.87 204.13,128.44 204.52,128.02 204.9,127.6 205.29,127.18 205.67,126.77 206.06,126.35 206.44,125.92 206.83,125.49 207.22,125.05 207.6,124.6 207.99,124.14 208.37,123.67 208.76,123.18 209.14,122.69 209.53,122.18 209.91,121.66 210.3,121.13 210.68,120.59 211.07,120.04 211.46,119.48 211.84,118.92 212.23,118.35 212.61,117.78 213,117.21 213.38,116.63 213.77,116.06 214.15,115.5 214.54,114.94 214.93,114.38 215.31,113.83 215.7,113.29 216.08,112.75 216.47,112.21 216.85,111.69 217.24,111.16 217.62,110.64 218.01,110.12 218.4,109.6 218.78,109.08 219.17,108.57 219.55,108.04 219.94,107.52 220.32,106.99 220.71,106.46 221.09,105.92 221.48,105.38 221.87,104.84 222.25,104.3 222.64,103.75 223.02,103.2 223.41,102.65 223.79,102.1 224.18,101.56 224.56,101.01 224.95,100.47 225.33,99.94 225.72,99.41 226.11,98.89 226.49,98.38 226.88,97.88 227.26,97.38 227.65,96.9 228.03,96.43 228.42,95.96 228.8,95.51 229.19,95.07 229.58,94.64 229.96,94.21 230.35,93.8 230.73,93.39 231.12,92.99 231.5,92.6 231.89,92.21 232.27,91.82 232.66,91.44 233.05,91.05 233.43,90.67 233.82,90.28 234.2,89.89 234.59,89.5 234.97,89.11 235.36,88.71 235.74,88.31 236.13,87.91 236.52,87.5 236.9,87.09 237.29,86.67 237.67,86.25 238.06,85.83 238.44,85.4 238.83,84.97 239.21,84.53 239.6,84.1 239.98,83.66 240.37,83.21 240.76,82.75 241.14,82.29 241.53,81.83 241.91,81.35 242.3,80.86 242.68,80.36 243.07,79.84 243.45,79.3 243.84,78.75 244.23,78.18 244.61,77.58 245,76.97 245.38,76.33 245.77,75.67 246.15,74.99 246.54,74.29 246.92,73.58 247.31,72.85 247.7,72.11 248.08,71.36 248.47,70.6 248.85,69.85 249.24,69.11 249.62,68.37 250.01,67.65 250.39,66.95 250.78,66.27 251.17,65.62 251.55,65.01 251.94,64.43 252.32,63.88 252.71,63.37 253.09,62.9 253.48,62.47 253.86,62.08 254.25,61.73 254.63,61.42 255.02,61.13 255.41,60.89 255.79,60.67 256.18,60.49 256.56,60.33 256.95,60.19 257.33,60.08 257.72,59.98 258.1,59.9 258.49,59.83 258.88,59.78 259.26,59.74 259.65,59.7 260.03,59.67 260.42,59.65 260.8,59.63 261.19,59.62 261.57,59.61 261.96,59.6" stroke-dasharray="none" stroke="rgb(31,120,180)" stroke-width="0.75" opacity="1" stroke-opacity="1" fill="none"/>
          </g>
          <g id="Fig:densplot_01.xyplot.lines.group.4.panel.1.1.1">
            <polyline id="Fig:densplot_01.xyplot.lines.group.4.panel.1.1.1.1" points="64.65,59.6 65.04,59.61 65.42,59.63 65.81,59.65 66.2,59.67 66.58,59.7 66.97,59.74 67.35,59.79 67.74,59.86 68.13,59.94 68.51,60.05 68.9,60.18 69.29,60.34 69.67,60.54 70.06,60.79 70.45,61.08 70.83,61.44 71.22,61.86 71.61,62.36 71.99,62.96 72.38,63.67 72.77,64.49 73.15,65.44 73.54,66.52 73.93,67.75 74.31,69.14 74.7,70.74 75.08,72.52 75.47,74.5 75.86,76.68 76.24,79.07 76.63,81.67 77.02,84.5 77.4,87.58 77.79,90.88 78.18,94.39 78.56,98.1 78.95,102.01 79.34,106.11 79.72,110.39 80.11,114.84 80.5,119.43 80.88,124.13 81.27,128.92 81.66,133.79 82.04,138.71 82.43,143.66 82.82,148.6 83.2,153.52 83.59,158.39 83.97,163.18 84.36,167.89 84.75,172.48 85.13,176.92 85.52,181.2 85.91,185.31 86.29,189.23 86.68,192.96 87.07,196.49 87.45,199.8 87.84,202.85 88.23,205.67 88.61,208.26 89,210.62 89.39,212.76 89.77,214.67 90.16,216.35 90.55,217.78 90.93,219.01 91.32,220.04 91.7,220.88 92.09,221.55 92.48,222.04 92.86,222.37 93.25,222.54 93.64,222.59 94.02,222.52 94.41,222.35 94.8,222.09 95.18,221.75 95.57,221.34 95.96,220.87 96.34,220.36 96.73,219.81 97.12,219.24 97.5,218.65 97.89,218.04 98.28,217.43 98.66,216.83 99.05,216.22 99.43,215.62 99.82,215.04 100.21,214.46 100.59,213.9 100.98,213.35 101.37,212.82 101.75,212.3 102.14,211.79 102.53,211.3 102.91,210.83 103.3,210.37 103.69,209.93 104.07,209.5 104.46,209.09 104.85,208.7 105.23,208.32 105.62,207.96 106.01,207.62 106.39,207.3 106.78,207 107.17,206.72 107.55,206.46 107.94,206.22 108.32,206 108.71,205.8 109.1,205.62 109.48,205.46 109.87,205.31 110.26,205.18 110.64,205.06 111.03,204.95 111.42,204.86 111.8,204.79 112.19,204.72 112.58,204.66 112.96,204.61 113.35,204.57 113.74,204.54 114.12,204.52 114.51,204.51 114.9,204.5 115.28,204.5 115.67,204.51 116.05,204.53 116.44,204.56 116.83,204.6 117.21,204.65 117.6,204.71 117.99,204.78 118.37,204.86 118.76,204.94 119.15,205.05 119.53,205.16 119.92,205.28 120.31,205.41 120.69,205.55 121.08,205.7 121.47,205.85 121.85,206.01 122.24,206.18 122.63,206.36 123.01,206.54 123.4,206.72 123.79,206.9 124.17,207.08 124.56,207.27 124.94,207.45 125.33,207.62 125.72,207.79 126.1,207.95 126.49,208.1 126.88,208.24 127.26,208.36 127.65,208.47 128.04,208.56 128.42,208.62 128.81,208.66 129.2,208.68 129.58,208.66 129.97,208.62 130.36,208.54 130.74,208.43 131.13,208.28 131.52,208.1 131.9,207.89 132.29,207.63 132.67,207.34 133.06,207.02 133.45,206.67 133.83,206.29 134.22,205.88 134.61,205.45 134.99,204.99 135.38,204.52 135.77,204.03 136.15,203.52 136.54,203.01 136.93,202.48 137.31,201.95 137.7,201.42 138.09,200.87 138.47,200.33 138.86,199.78 139.25,199.23 139.63,198.67 140.02,198.11 140.4,197.55 140.79,196.98 141.18,196.4 141.56,195.82 141.95,195.24 142.34,194.65 142.72,194.05 143.11,193.44 143.5,192.82 143.88,192.2 144.27,191.57 144.66,190.94 145.04,190.3 145.43,189.65 145.82,189 146.2,188.35 146.59,187.69 146.98,187.03 147.36,186.36 147.75,185.69 148.14,185.02 148.52,184.35 148.91,183.67 149.29,182.98 149.68,182.3 150.07,181.61 150.45,180.92 150.84,180.23 151.23,179.53 151.61,178.84 152,178.14 152.39,177.45 152.77,176.76 153.16,176.07 153.55,175.39 153.93,174.72 154.32,174.06 154.71,173.41 155.09,172.77 155.48,172.15 155.87,171.54 156.25,170.95 156.64,170.38 157.02,169.84 157.41,169.31 157.8,168.8 158.18,168.32 158.57,167.86 158.96,167.42 159.34,167 159.73,166.61 160.12,166.23 160.5,165.87 160.89,165.52 161.28,165.19 161.66,164.88 162.05,164.57 162.44,164.27 162.82,163.97 163.21,163.67 163.6,163.38 163.98,163.08 164.37,162.78 164.75,162.48 165.14,162.16 165.53,161.84 165.91,161.52 166.3,161.18 166.69,160.83 167.07,160.47 167.46,160.11 167.85,159.74 168.23,159.36 168.62,158.97 169.01,158.58 169.39,158.19 169.78,157.8 170.17,157.4 170.55,157.01 170.94,156.62 171.33,156.23 171.71,155.85 172.1,155.48 172.49,155.12 172.87,154.77 173.26,154.43 173.64,154.1 174.03,153.79 174.42,153.49 174.8,153.21 175.19,152.95 175.58,152.7 175.96,152.48 176.35,152.26 176.74,152.07 177.12,151.9 177.51,151.74 177.9,151.6 178.28,151.47 178.67,151.36 179.06,151.26 179.44,151.17 179.83,151.09 180.22,151.02 180.6,150.95 180.99,150.88 181.37,150.82 181.76,150.76 182.15,150.7 182.53,150.64 182.92,150.57 183.31,150.49 183.69,150.41 184.08,150.33 184.47,150.23 184.85,150.13 185.24,150.01 185.63,149.89 186.01,149.75 186.4,149.6 186.79,149.44 187.17,149.27 187.56,149.08 187.95,148.88 188.33,148.66 188.72,148.43 189.1,148.18 189.49,147.91 189.88,147.62 190.26,147.31 190.65,146.99 191.04,146.64 191.42,146.28 191.81,145.89 192.2,145.49 192.58,145.06 192.97,144.62 193.36,144.16 193.74,143.68 194.13,143.19 194.52,142.68 194.9,142.17 195.29,141.64 195.68,141.1 196.06,140.55 196.45,140 196.84,139.45 197.22,138.89 197.61,138.33 197.99,137.77 198.38,137.21 198.77,136.65 199.15,136.09 199.54,135.54 199.93,134.99 200.31,134.45 200.7,133.91 201.09,133.37 201.47,132.84 201.86,132.32 202.25,131.8 202.63,131.29 203.02,130.78 203.41,130.28 203.79,129.78 204.18,129.29 204.57,128.8 204.95,128.31 205.34,127.82 205.72,127.34 206.11,126.86 206.5,126.38 206.88,125.9 207.27,125.42 207.66,124.94 208.04,124.46 208.43,123.98 208.82,123.49 209.2,123 209.59,122.5 209.98,122.01 210.36,121.51 210.75,121 211.14,120.49 211.52,119.98 211.91,119.46 212.3,118.95 212.68,118.42 213.07,117.9 213.45,117.37 213.84,116.85 214.23,116.31 214.61,115.78 215,115.25 215.39,114.71 215.77,114.17 216.16,113.63 216.55,113.08 216.93,112.54 217.32,111.99 217.71,111.43 218.09,110.88 218.48,110.32 218.87,109.75 219.25,109.18 219.64,108.61 220.03,108.04 220.41,107.46 220.8,106.88 221.19,106.3 221.57,105.72 221.96,105.14 222.34,104.56 222.73,103.99 223.12,103.41 223.5,102.84 223.89,102.28 224.28,101.72 224.66,101.17 225.05,100.63 225.44,100.09 225.82,99.57 226.21,99.05 226.6,98.55 226.98,98.05 227.37,97.57 227.76,97.09 228.14,96.63 228.53,96.18 228.92,95.74 229.3,95.31 229.69,94.89 230.07,94.48 230.46,94.08 230.85,93.68 231.23,93.29 231.62,92.91 232.01,92.53 232.39,92.15 232.78,91.78 233.17,91.41 233.55,91.04 233.94,90.66 234.33,90.28 234.71,89.9 235.1,89.52 235.49,89.13 235.87,88.74 236.26,88.34 236.65,87.94 237.03,87.53 237.42,87.11 237.8,86.69 238.19,86.27 238.58,85.84 238.96,85.4 239.35,84.96 239.74,84.51 240.12,84.05 240.51,83.58 240.9,83.11 241.28,82.63 241.67,82.14 242.06,81.64 242.44,81.12 242.83,80.59 243.22,80.04 243.6,79.48 243.99,78.89 244.38,78.29 244.76,77.67 245.15,77.02 245.54,76.35 245.92,75.67 246.31,74.96 246.69,74.24 247.08,73.5 247.47,72.75 247.85,71.99 248.24,71.23 248.63,70.46 249.01,69.7 249.4,68.95 249.79,68.2 250.17,67.48 250.56,66.78 250.95,66.11 251.33,65.47 251.72,64.86 252.11,64.28 252.49,63.74 252.88,63.24 253.27,62.79 253.65,62.37 254.04,61.99 254.42,61.64 254.81,61.34 255.2,61.07 255.58,60.83 255.97,60.63 256.36,60.45 256.74,60.29 257.13,60.16 257.52,60.05 257.9,59.96 258.29,59.88 258.68,59.82 259.06,59.77 259.45,59.73 259.84,59.69 260.22,59.67 260.61,59.65 261,59.63 261.38,59.62 261.77,59.61 262.15,59.6" stroke-dasharray="none" stroke="rgb(31,120,180)" stroke-width="0.75" opacity="1" stroke-opacity="1" fill="none"/>
          </g>
          <g id="Fig:densplot_01.xyplot.lines.group.5.panel.1.1.1">
            <polyline id="Fig:densplot_01.xyplot.lines.group.5.panel.1.1.1.1" points="64.73,59.61 65.12,59.62 65.5,59.64 65.89,59.66 66.28,59.69 66.66,59.73 67.05,59.78 67.44,59.84 67.82,59.91 68.21,60.01 68.59,60.13 68.98,60.28 69.37,60.47 69.75,60.71 70.14,60.99 70.53,61.33 70.91,61.73 71.3,62.2 71.68,62.78 72.07,63.46 72.46,64.24 72.84,65.15 73.23,66.2 73.61,67.39 74,68.73 74.39,70.28 74.77,72.01 75.16,73.94 75.55,76.07 75.93,78.41 76.32,80.97 76.7,83.74 77.09,86.77 77.48,90.03 77.86,93.5 78.25,97.17 78.64,101.05 79.02,105.11 79.41,109.35 79.79,113.78 80.18,118.34 80.57,123.01 80.95,127.77 81.34,132.6 81.72,137.48 82.11,142.37 82.5,147.25 82.88,152.09 83.27,156.87 83.66,161.56 84.04,166.14 84.43,170.59 84.81,174.88 85.2,178.98 85.59,182.89 85.97,186.61 86.36,190.13 86.75,193.43 87.13,196.51 87.52,199.33 87.9,201.92 88.29,204.29 88.68,206.45 89.06,208.39 89.45,210.12 89.83,211.65 90.22,212.96 90.61,214.09 90.99,215.05 91.38,215.86 91.77,216.52 92.15,217.04 92.54,217.44 92.92,217.7 93.31,217.87 93.7,217.94 94.08,217.94 94.47,217.86 94.86,217.71 95.24,217.5 95.63,217.23 96.01,216.92 96.4,216.56 96.79,216.17 97.17,215.74 97.56,215.28 97.94,214.79 98.33,214.28 98.72,213.74 99.1,213.18 99.49,212.6 99.88,212.01 100.26,211.41 100.65,210.79 101.03,210.17 101.42,209.55 101.81,208.92 102.19,208.29 102.58,207.67 102.97,207.06 103.35,206.46 103.74,205.87 104.12,205.3 104.51,204.75 104.9,204.22 105.28,203.71 105.67,203.22 106.06,202.77 106.44,202.36 106.83,201.97 107.21,201.61 107.6,201.29 107.99,201.01 108.37,200.76 108.76,200.56 109.14,200.4 109.53,200.27 109.92,200.18 110.3,200.13 110.69,200.11 111.08,200.14 111.46,200.19 111.85,200.28 112.23,200.39 112.62,200.52 113.01,200.67 113.39,200.84 113.78,201.03 114.17,201.22 114.55,201.42 114.94,201.62 115.32,201.82 115.71,202.02 116.1,202.22 116.48,202.4 116.87,202.58 117.25,202.75 117.64,202.91 118.03,203.06 118.41,203.2 118.8,203.33 119.19,203.45 119.57,203.57 119.96,203.67 120.34,203.78 120.73,203.88 121.12,203.97 121.5,204.07 121.89,204.17 122.28,204.27 122.66,204.37 123.05,204.47 123.43,204.59 123.82,204.7 124.21,204.83 124.59,204.96 124.98,205.1 125.36,205.24 125.75,205.39 126.14,205.55 126.52,205.7 126.91,205.86 127.3,206.02 127.68,206.18 128.07,206.33 128.45,206.47 128.84,206.6 129.23,206.72 129.61,206.83 130,206.91 130.39,206.97 130.77,207.01 131.16,207.03 131.54,207.02 131.93,206.98 132.32,206.91 132.7,206.82 133.09,206.69 133.47,206.54 133.86,206.36 134.25,206.15 134.63,205.92 135.02,205.66 135.41,205.38 135.79,205.09 136.18,204.78 136.56,204.45 136.95,204.11 137.34,203.76 137.72,203.4 138.11,203.02 138.5,202.64 138.88,202.26 139.27,201.86 139.65,201.46 140.04,201.05 140.43,200.64 140.81,200.22 141.2,199.8 141.59,199.37 141.97,198.94 142.36,198.51 142.74,198.07 143.13,197.62 143.52,197.18 143.9,196.72 144.29,196.27 144.67,195.81 145.06,195.35 145.45,194.89 145.83,194.42 146.22,193.95 146.61,193.48 146.99,192.99 147.38,192.51 147.76,192.02 148.15,191.52 148.54,191.01 148.92,190.49 149.31,189.97 149.7,189.44 150.08,188.9 150.47,188.35 150.85,187.79 151.24,187.22 151.63,186.65 152.01,186.07 152.4,185.48 152.78,184.89 153.17,184.29 153.56,183.68 153.94,183.07 154.33,182.45 154.72,181.83 155.1,181.21 155.49,180.58 155.87,179.95 156.26,179.32 156.65,178.69 157.03,178.05 157.42,177.41 157.81,176.77 158.19,176.13 158.58,175.49 158.96,174.85 159.35,174.2 159.74,173.56 160.12,172.92 160.51,172.28 160.89,171.64 161.28,171 161.67,170.37 162.05,169.74 162.44,169.11 162.83,168.49 163.21,167.88 163.6,167.27 163.98,166.67 164.37,166.08 164.76,165.5 165.14,164.93 165.53,164.37 165.92,163.82 166.3,163.29 166.69,162.78 167.07,162.28 167.46,161.79 167.85,161.32 168.23,160.87 168.62,160.43 169,160.01 169.39,159.61 169.78,159.22 170.16,158.84 170.55,158.48 170.94,158.13 171.32,157.79 171.71,157.45 172.09,157.13 172.48,156.81 172.87,156.5 173.25,156.19 173.64,155.89 174.03,155.58 174.41,155.28 174.8,154.97 175.18,154.67 175.57,154.37 175.96,154.06 176.34,153.76 176.73,153.45 177.12,153.14 177.5,152.84 177.89,152.53 178.27,152.23 178.66,151.93 179.05,151.62 179.43,151.32 179.82,151.03 180.2,150.73 180.59,150.44 180.98,150.15 181.36,149.86 181.75,149.58 182.14,149.31 182.52,149.03 182.91,148.77 183.29,148.51 183.68,148.26 184.07,148.01 184.45,147.77 184.84,147.54 185.23,147.32 185.61,147.11 186,146.9 186.38,146.7 186.77,146.51 187.16,146.32 187.54,146.14 187.93,145.95 188.31,145.77 188.7,145.58 189.09,145.4 189.47,145.2 189.86,145 190.25,144.79 190.63,144.56 191.02,144.32 191.4,144.07 191.79,143.81 192.18,143.53 192.56,143.23 192.95,142.91 193.34,142.58 193.72,142.23 194.11,141.87 194.49,141.49 194.88,141.1 195.27,140.7 195.65,140.28 196.04,139.86 196.42,139.42 196.81,138.98 197.2,138.52 197.58,138.06 197.97,137.59 198.36,137.11 198.74,136.62 199.13,136.13 199.51,135.63 199.9,135.12 200.29,134.6 200.67,134.07 201.06,133.53 201.45,132.99 201.83,132.43 202.22,131.86 202.6,131.28 202.99,130.69 203.38,130.09 203.76,129.47 204.15,128.85 204.53,128.22 204.92,127.59 205.31,126.95 205.69,126.3 206.08,125.65 206.47,125.01 206.85,124.36 207.24,123.73 207.62,123.09 208.01,122.47 208.4,121.86 208.78,121.26 209.17,120.67 209.56,120.09 209.94,119.53 210.33,118.99 210.71,118.46 211.1,117.94 211.49,117.44 211.87,116.95 212.26,116.47 212.65,116.01 213.03,115.55 213.42,115.1 213.8,114.66 214.19,114.22 214.58,113.79 214.96,113.35 215.35,112.91 215.73,112.48 216.12,112.04 216.51,111.59 216.89,111.14 217.28,110.68 217.67,110.21 218.05,109.74 218.44,109.26 218.82,108.77 219.21,108.27 219.6,107.76 219.98,107.25 220.37,106.73 220.76,106.21 221.14,105.69 221.53,105.16 221.91,104.63 222.3,104.1 222.69,103.57 223.07,103.04 223.46,102.51 223.84,101.99 224.23,101.47 224.62,100.96 225,100.45 225.39,99.95 225.78,99.46 226.16,98.98 226.55,98.51 226.93,98.05 227.32,97.6 227.71,97.16 228.09,96.73 228.48,96.31 228.87,95.9 229.25,95.49 229.64,95.1 230.02,94.71 230.41,94.33 230.8,93.95 231.18,93.57 231.57,93.18 231.95,92.8 232.34,92.41 232.73,92.02 233.11,91.62 233.5,91.21 233.89,90.79 234.27,90.36 234.66,89.93 235.04,89.48 235.43,89.03 235.82,88.57 236.2,88.1 236.59,87.63 236.98,87.16 237.36,86.68 237.75,86.2 238.13,85.73 238.52,85.25 238.91,84.78 239.29,84.31 239.68,83.84 240.06,83.38 240.45,82.91 240.84,82.45 241.22,81.98 241.61,81.51 242,81.04 242.38,80.55 242.77,80.06 243.15,79.55 243.54,79.03 243.93,78.49 244.31,77.93 244.7,77.35 245.09,76.75 245.47,76.13 245.86,75.49 246.24,74.82 246.63,74.14 247.02,73.44 247.4,72.72 247.79,72 248.18,71.26 248.56,70.52 248.95,69.78 249.33,69.04 249.72,68.32 250.11,67.6 250.49,66.91 250.88,66.24 251.26,65.6 251.65,64.99 252.04,64.41 252.42,63.87 252.81,63.36 253.2,62.9 253.58,62.47 253.97,62.09 254.35,61.73 254.74,61.42 255.13,61.14 255.51,60.89 255.9,60.68 256.29,60.5 256.67,60.34 257.06,60.2 257.44,60.08 257.83,59.98 258.22,59.9 258.6,59.84 258.99,59.78 259.37,59.74 259.76,59.7 260.15,59.67 260.53,59.65 260.92,59.63 261.31,59.62 261.69,59.61 262.08,59.6" stroke-dasharray="none" stroke="rgb(31,120,180)" stroke-width="0.75" opacity="1" stroke-opacity="1" fill="none"/>
          </g>
          <g id="Fig:densplot_01.xyplot.lines.group.6.panel.1.1.1">
            <polyline id="Fig:densplot_01.xyplot.lines.group.6.panel.1.1.1.1" points="64.73,59.61 65.12,59.62 65.51,59.64 65.89,59.66 66.28,59.68 66.66,59.72 67.05,59.76 67.44,59.82 67.82,59.9 68.21,59.99 68.59,60.1 68.98,60.25 69.37,60.43 69.75,60.66 70.14,60.93 70.53,61.26 70.91,61.65 71.3,62.11 71.68,62.67 72.07,63.34 72.46,64.11 72.84,65 73.23,66.03 73.61,67.21 74,68.54 74.39,70.07 74.77,71.8 75.16,73.72 75.55,75.84 75.93,78.18 76.32,80.74 76.7,83.52 77.09,86.58 77.48,89.85 77.86,93.36 78.25,97.07 78.63,101 79.02,105.12 79.41,109.44 79.79,113.95 80.18,118.6 80.57,123.38 80.95,128.25 81.34,133.2 81.72,138.21 82.11,143.24 82.5,148.27 82.88,153.27 83.27,158.2 83.65,163.05 84.04,167.79 84.43,172.41 84.81,176.85 85.2,181.11 85.59,185.18 85.97,189.04 86.36,192.69 86.74,196.11 87.13,199.3 87.52,202.21 87.9,204.88 88.29,207.31 88.67,209.5 89.06,211.46 89.45,213.19 89.83,214.69 90.22,215.95 90.61,217 90.99,217.86 91.38,218.55 91.76,219.06 92.15,219.41 92.54,219.62 92.92,219.67 93.31,219.6 93.69,219.43 94.08,219.17 94.47,218.82 94.85,218.4 95.24,217.91 95.63,217.37 96.01,216.78 96.4,216.16 96.78,215.52 97.17,214.85 97.56,214.18 97.94,213.5 98.33,212.81 98.72,212.14 99.1,211.46 99.49,210.8 99.87,210.15 100.26,209.52 100.65,208.9 101.03,208.3 101.42,207.71 101.8,207.14 102.19,206.59 102.58,206.05 102.96,205.52 103.35,205.01 103.74,204.51 104.12,204.02 104.51,203.54 104.89,203.08 105.28,202.63 105.67,202.18 106.05,201.76 106.44,201.34 106.82,200.95 107.21,200.57 107.6,200.21 107.98,199.87 108.37,199.56 108.76,199.27 109.14,199.02 109.53,198.8 109.91,198.62 110.3,198.47 110.69,198.36 111.07,198.29 111.46,198.27 111.84,198.3 112.23,198.36 112.62,198.47 113,198.61 113.39,198.8 113.78,199.02 114.16,199.29 114.55,199.58 114.93,199.9 115.32,200.25 115.71,200.62 116.09,201 116.48,201.4 116.86,201.81 117.25,202.21 117.64,202.62 118.02,203.03 118.41,203.42 118.8,203.8 119.18,204.17 119.57,204.52 119.95,204.84 120.34,205.14 120.73,205.42 121.11,205.67 121.5,205.89 121.88,206.08 122.27,206.25 122.66,206.38 123.04,206.5 123.43,206.59 123.82,206.65 124.2,206.7 124.59,206.73 124.97,206.75 125.36,206.76 125.75,206.76 126.13,206.76 126.52,206.75 126.9,206.75 127.29,206.76 127.68,206.77 128.06,206.79 128.45,206.82 128.84,206.86 129.22,206.91 129.61,206.97 129.99,207.04 130.38,207.11 130.77,207.18 131.15,207.25 131.54,207.32 131.92,207.38 132.31,207.42 132.7,207.45 133.08,207.46 133.47,207.44 133.86,207.4 134.24,207.33 134.63,207.23 135.01,207.08 135.4,206.91 135.79,206.69 136.17,206.44 136.56,206.16 136.94,205.84 137.33,205.49 137.72,205.1 138.1,204.68 138.49,204.24 138.88,203.77 139.26,203.29 139.65,202.79 140.03,202.27 140.42,201.74 140.81,201.2 141.19,200.66 141.58,200.12 141.96,199.57 142.35,199.03 142.74,198.48 143.12,197.94 143.51,197.4 143.9,196.86 144.28,196.33 144.67,195.8 145.05,195.27 145.44,194.74 145.83,194.21 146.21,193.68 146.6,193.15 146.99,192.61 147.37,192.06 147.76,191.51 148.14,190.95 148.53,190.38 148.92,189.8 149.3,189.21 149.69,188.61 150.07,188 150.46,187.37 150.85,186.74 151.23,186.1 151.62,185.45 152.01,184.8 152.39,184.14 152.78,183.48 153.16,182.82 153.55,182.16 153.94,181.51 154.32,180.86 154.71,180.22 155.09,179.59 155.48,178.96 155.87,178.35 156.25,177.76 156.64,177.17 157.03,176.6 157.41,176.03 157.8,175.48 158.18,174.93 158.57,174.39 158.96,173.86 159.34,173.33 159.73,172.8 160.11,172.27 160.5,171.73 160.89,171.2 161.27,170.66 161.66,170.11 162.05,169.55 162.43,168.99 162.82,168.42 163.2,167.85 163.59,167.27 163.98,166.68 164.36,166.1 164.75,165.51 165.13,164.93 165.52,164.36 165.91,163.79 166.29,163.24 166.68,162.7 167.07,162.18 167.45,161.67 167.84,161.19 168.22,160.72 168.61,160.28 169,159.86 169.38,159.47 169.77,159.09 170.15,158.73 170.54,158.39 170.93,158.06 171.31,157.75 171.7,157.45 172.09,157.16 172.47,156.87 172.86,156.58 173.24,156.3 173.63,156.01 174.02,155.72 174.4,155.43 174.79,155.13 175.17,154.82 175.56,154.51 175.95,154.19 176.33,153.87 176.72,153.54 177.11,153.21 177.49,152.88 177.88,152.54 178.26,152.21 178.65,151.87 179.04,151.54 179.42,151.22 179.81,150.9 180.19,150.59 180.58,150.29 180.97,150.01 181.35,149.73 181.74,149.47 182.13,149.23 182.51,149 182.9,148.8 183.28,148.61 183.67,148.43 184.06,148.28 184.44,148.14 184.83,148.02 185.21,147.91 185.6,147.82 185.99,147.73 186.37,147.65 186.76,147.58 187.15,147.51 187.53,147.43 187.92,147.34 188.3,147.25 188.69,147.14 189.08,147.01 189.46,146.86 189.85,146.68 190.23,146.47 190.62,146.23 191.01,145.97 191.39,145.67 191.78,145.35 192.17,144.99 192.55,144.6 192.94,144.18 193.32,143.74 193.71,143.27 194.1,142.79 194.48,142.29 194.87,141.77 195.26,141.24 195.64,140.71 196.03,140.17 196.41,139.62 196.8,139.07 197.19,138.52 197.57,137.97 197.96,137.42 198.34,136.87 198.73,136.32 199.12,135.77 199.5,135.21 199.89,134.65 200.28,134.08 200.66,133.5 201.05,132.91 201.43,132.3 201.82,131.69 202.21,131.07 202.59,130.43 202.98,129.79 203.36,129.13 203.75,128.46 204.14,127.79 204.52,127.12 204.91,126.44 205.3,125.77 205.68,125.1 206.07,124.44 206.45,123.8 206.84,123.16 207.23,122.54 207.61,121.94 208,121.36 208.38,120.8 208.77,120.26 209.16,119.73 209.54,119.23 209.93,118.74 210.32,118.27 210.7,117.81 211.09,117.37 211.47,116.93 211.86,116.51 212.25,116.09 212.63,115.68 213.02,115.28 213.4,114.87 213.79,114.47 214.18,114.06 214.56,113.66 214.95,113.25 215.34,112.84 215.72,112.42 216.11,112 216.49,111.57 216.88,111.13 217.27,110.68 217.65,110.23 218.04,109.76 218.42,109.29 218.81,108.8 219.2,108.3 219.58,107.79 219.97,107.27 220.36,106.75 220.74,106.21 221.13,105.66 221.51,105.11 221.9,104.55 222.29,103.99 222.67,103.42 223.06,102.86 223.44,102.29 223.83,101.73 224.22,101.17 224.6,100.62 224.99,100.08 225.38,99.54 225.76,99.01 226.15,98.49 226.53,97.98 226.92,97.48 227.31,97 227.69,96.52 228.08,96.05 228.46,95.59 228.85,95.14 229.24,94.7 229.62,94.26 230.01,93.84 230.4,93.42 230.78,93 231.17,92.59 231.55,92.18 231.94,91.78 232.33,91.38 232.71,90.98 233.1,90.58 233.48,90.18 233.87,89.78 234.26,89.39 234.64,88.99 235.03,88.59 235.42,88.18 235.8,87.78 236.19,87.37 236.57,86.97 236.96,86.56 237.35,86.14 237.73,85.73 238.12,85.32 238.51,84.9 238.89,84.48 239.28,84.07 239.66,83.65 240.05,83.23 240.44,82.8 240.82,82.38 241.21,81.94 241.59,81.51 241.98,81.07 242.37,80.62 242.75,80.15 243.14,79.68 243.53,79.18 243.91,78.68 244.3,78.15 244.68,77.6 245.07,77.03 245.46,76.44 245.84,75.82 246.23,75.18 246.61,74.51 247,73.83 247.39,73.12 247.77,72.4 248.16,71.67 248.55,70.92 248.93,70.18 249.32,69.43 249.7,68.69 250.09,67.96 250.48,67.25 250.86,66.56 251.25,65.89 251.63,65.26 252.02,64.65 252.41,64.08 252.79,63.55 253.18,63.07 253.57,62.62 253.95,62.21 254.34,61.84 254.72,61.51 255.11,61.22 255.5,60.96 255.88,60.73 256.27,60.54 256.65,60.37 257.04,60.23 257.43,60.1 257.81,60 258.2,59.92 258.59,59.85 258.97,59.79 259.36,59.74 259.74,59.71 260.13,59.68 260.52,59.65 260.9,59.63 261.29,59.62 261.67,59.61 262.06,59.6" stroke-dasharray="none" stroke="rgb(31,120,180)" stroke-width="0.75" opacity="1" stroke-opacity="1" fill="none"/>
          </g>
          <g id="Fig:densplot_01.xyplot.lines.group.7.panel.1.1.1">
            <polyline id="Fig:densplot_01.xyplot.lines.group.7.panel.1.1.1.1" points="64.94,59.6 65.32,59.61 65.71,59.63 66.09,59.65 66.48,59.67 66.86,59.7 67.25,59.74 67.64,59.79 68.02,59.86 68.41,59.94 68.79,60.05 69.18,60.18 69.56,60.35 69.95,60.55 70.33,60.79 70.72,61.08 71.11,61.44 71.49,61.87 71.88,62.39 72.26,62.99 72.65,63.7 73.03,64.51 73.42,65.45 73.8,66.54 74.19,67.79 74.58,69.2 74.96,70.79 75.35,72.56 75.73,74.51 76.12,76.67 76.5,79.06 76.89,81.67 77.27,84.49 77.66,87.52 78.05,90.76 78.43,94.2 78.82,97.84 79.2,101.7 79.59,105.72 79.97,109.91 80.36,114.23 80.74,118.67 81.13,123.22 81.52,127.85 81.9,132.54 82.29,137.27 82.67,142 83.06,146.72 83.44,151.4 83.83,156.03 84.21,160.58 84.6,165.02 84.99,169.33 85.37,173.51 85.76,177.54 86.14,181.41 86.53,185.11 86.91,188.62 87.3,191.9 87.68,194.99 88.07,197.88 88.46,200.57 88.84,203.06 89.23,205.34 89.61,207.4 90,209.24 90.38,210.89 90.77,212.35 91.15,213.62 91.54,214.72 91.93,215.65 92.31,216.4 92.7,216.98 93.08,217.42 93.47,217.73 93.85,217.91 94.24,217.98 94.62,217.93 95.01,217.78 95.4,217.53 95.78,217.21 96.17,216.81 96.55,216.36 96.94,215.85 97.32,215.3 97.71,214.7 98.09,214.08 98.48,213.43 98.86,212.76 99.25,212.09 99.64,211.4 100.02,210.71 100.41,210.03 100.79,209.35 101.18,208.69 101.56,208.03 101.95,207.4 102.33,206.78 102.72,206.18 103.11,205.6 103.49,205.05 103.88,204.53 104.26,204.04 104.65,203.57 105.03,203.13 105.42,202.72 105.8,202.35 106.19,202 106.58,201.68 106.96,201.39 107.35,201.13 107.73,200.9 108.12,200.69 108.5,200.52 108.89,200.36 109.27,200.24 109.66,200.13 110.05,200.05 110.43,199.99 110.82,199.96 111.2,199.96 111.59,199.99 111.97,200.03 112.36,200.11 112.74,200.22 113.13,200.35 113.52,200.51 113.9,200.71 114.29,200.93 114.67,201.18 115.06,201.46 115.44,201.76 115.83,202.08 116.21,202.43 116.6,202.78 116.99,203.15 117.37,203.53 117.76,203.91 118.14,204.29 118.53,204.66 118.91,205.02 119.3,205.38 119.68,205.71 120.07,206.03 120.46,206.33 120.84,206.61 121.23,206.87 121.61,207.11 122,207.32 122.38,207.51 122.77,207.69 123.15,207.84 123.54,207.98 123.93,208.1 124.31,208.2 124.7,208.29 125.08,208.37 125.47,208.43 125.85,208.49 126.24,208.54 126.62,208.59 127.01,208.62 127.4,208.66 127.78,208.68 128.17,208.7 128.55,208.72 128.94,208.73 129.32,208.74 129.71,208.75 130.09,208.74 130.48,208.74 130.87,208.73 131.25,208.72 131.64,208.7 132.02,208.67 132.41,208.64 132.79,208.61 133.18,208.57 133.56,208.52 133.95,208.47 134.33,208.42 134.72,208.35 135.11,208.28 135.49,208.2 135.88,208.11 136.26,208.01 136.65,207.89 137.03,207.76 137.42,207.61 137.8,207.44 138.19,207.25 138.58,207.05 138.96,206.81 139.35,206.56 139.73,206.28 140.12,205.97 140.5,205.64 140.89,205.29 141.27,204.91 141.66,204.51 142.05,204.1 142.43,203.66 142.82,203.2 143.2,202.73 143.59,202.24 143.97,201.74 144.36,201.23 144.74,200.72 145.13,200.19 145.52,199.66 145.9,199.13 146.29,198.59 146.67,198.04 147.06,197.5 147.44,196.95 147.83,196.4 148.21,195.85 148.6,195.29 148.99,194.74 149.37,194.18 149.76,193.62 150.14,193.06 150.53,192.49 150.91,191.92 151.3,191.35 151.68,190.78 152.07,190.2 152.46,189.61 152.84,189.02 153.23,188.42 153.61,187.81 154,187.2 154.38,186.58 154.77,185.94 155.15,185.3 155.54,184.65 155.93,183.98 156.31,183.3 156.7,182.61 157.08,181.9 157.47,181.19 157.85,180.46 158.24,179.72 158.62,178.97 159.01,178.21 159.4,177.45 159.78,176.68 160.17,175.91 160.55,175.13 160.94,174.36 161.32,173.6 161.71,172.84 162.09,172.09 162.48,171.35 162.87,170.62 163.25,169.91 163.64,169.22 164.02,168.55 164.41,167.9 164.79,167.26 165.18,166.65 165.56,166.05 165.95,165.47 166.34,164.92 166.72,164.37 167.11,163.85 167.49,163.33 167.88,162.83 168.26,162.34 168.65,161.85 169.03,161.38 169.42,160.92 169.8,160.46 170.19,160 170.58,159.56 170.96,159.12 171.35,158.68 171.73,158.25 172.12,157.83 172.5,157.4 172.89,156.98 173.27,156.57 173.66,156.15 174.05,155.74 174.43,155.33 174.82,154.92 175.2,154.5 175.59,154.08 175.97,153.66 176.36,153.24 176.74,152.81 177.13,152.38 177.52,151.95 177.9,151.51 178.29,151.08 178.67,150.65 179.06,150.22 179.44,149.79 179.83,149.38 180.21,148.98 180.6,148.6 180.99,148.23 181.37,147.89 181.76,147.56 182.14,147.27 182.53,147 182.91,146.77 183.3,146.56 183.68,146.38 184.07,146.23 184.46,146.1 184.84,146 185.23,145.93 185.61,145.87 186,145.82 186.38,145.78 186.77,145.75 187.15,145.71 187.54,145.67 187.93,145.62 188.31,145.55 188.7,145.46 189.08,145.34 189.47,145.2 189.85,145.03 190.24,144.83 190.62,144.59 191.01,144.32 191.4,144.01 191.78,143.67 192.17,143.3 192.55,142.91 192.94,142.48 193.32,142.03 193.71,141.56 194.09,141.07 194.48,140.58 194.87,140.07 195.25,139.56 195.64,139.04 196.02,138.52 196.41,138.01 196.79,137.5 197.18,136.99 197.56,136.49 197.95,136 198.34,135.51 198.72,135.03 199.11,134.55 199.49,134.07 199.88,133.59 200.26,133.1 200.65,132.61 201.03,132.11 201.42,131.6 201.81,131.07 202.19,130.53 202.58,129.98 202.96,129.4 203.35,128.81 203.73,128.2 204.12,127.57 204.5,126.93 204.89,126.27 205.27,125.6 205.66,124.93 206.05,124.25 206.43,123.57 206.82,122.89 207.2,122.21 207.59,121.55 207.97,120.9 208.36,120.26 208.74,119.64 209.13,119.04 209.52,118.46 209.9,117.91 210.29,117.37 210.67,116.86 211.06,116.37 211.44,115.9 211.83,115.45 212.21,115.01 212.6,114.6 212.99,114.19 213.37,113.8 213.76,113.41 214.14,113.03 214.53,112.66 214.91,112.28 215.3,111.91 215.68,111.54 216.07,111.16 216.46,110.77 216.84,110.38 217.23,109.99 217.61,109.58 218,109.17 218.38,108.74 218.77,108.31 219.15,107.86 219.54,107.41 219.93,106.94 220.31,106.46 220.7,105.97 221.08,105.47 221.47,104.96 221.85,104.44 222.24,103.91 222.62,103.37 223.01,102.83 223.4,102.28 223.78,101.73 224.17,101.17 224.55,100.62 224.94,100.07 225.32,99.52 225.71,98.98 226.09,98.44 226.48,97.91 226.87,97.39 227.25,96.88 227.64,96.39 228.02,95.9 228.41,95.43 228.79,94.97 229.18,94.52 229.56,94.07 229.95,93.65 230.34,93.23 230.72,92.81 231.11,92.41 231.49,92.01 231.88,91.61 232.26,91.22 232.65,90.83 233.03,90.44 233.42,90.04 233.81,89.65 234.19,89.26 234.58,88.86 234.96,88.46 235.35,88.05 235.73,87.64 236.12,87.23 236.5,86.81 236.89,86.39 237.28,85.97 237.66,85.54 238.05,85.12 238.43,84.69 238.82,84.26 239.2,83.83 239.59,83.4 239.97,82.97 240.36,82.54 240.74,82.11 241.13,81.67 241.52,81.24 241.9,80.79 242.29,80.34 242.67,79.88 243.06,79.41 243.44,78.93 243.83,78.43 244.21,77.91 244.6,77.38 244.99,76.82 245.37,76.24 245.76,75.64 246.14,75.02 246.53,74.37 246.91,73.7 247.3,73.02 247.68,72.32 248.07,71.61 248.46,70.88 248.84,70.15 249.23,69.43 249.61,68.71 250,67.99 250.38,67.29 250.77,66.61 251.15,65.96 251.54,65.33 251.93,64.74 252.31,64.17 252.7,63.64 253.08,63.15 253.47,62.7 253.85,62.29 254.24,61.92 254.62,61.59 255.01,61.29 255.4,61.02 255.78,60.79 256.17,60.58 256.55,60.41 256.94,60.26 257.32,60.14 257.71,60.03 258.09,59.94 258.48,59.87 258.87,59.81 259.25,59.76 259.64,59.72 260.02,59.69 260.41,59.66 260.79,59.64 261.18,59.62 261.56,59.61 261.95,59.6" stroke-dasharray="none" stroke="rgb(31,120,180)" stroke-width="0.75" opacity="1" stroke-opacity="1" fill="none"/>
          </g>
          <g id="Fig:densplot_01.xyplot.lines.group.8.panel.1.1.1">
            <polyline id="Fig:densplot_01.xyplot.lines.group.8.panel.1.1.1.1" points="64.7,59.61 65.09,59.62 65.47,59.64 65.86,59.66 66.25,59.68 66.63,59.72 67.02,59.77 67.4,59.83 67.79,59.9 68.18,60 68.56,60.11 68.95,60.26 69.34,60.44 69.72,60.67 70.11,60.95 70.5,61.28 70.88,61.67 71.27,62.14 71.65,62.7 72.04,63.37 72.43,64.15 72.81,65.06 73.2,66.1 73.59,67.28 73.97,68.63 74.36,70.16 74.74,71.91 75.13,73.85 75.52,76.01 75.9,78.37 76.29,80.97 76.68,83.78 77.06,86.86 77.45,90.19 77.84,93.74 78.22,97.52 78.61,101.5 78.99,105.69 79.38,110.07 79.77,114.64 80.15,119.37 80.54,124.22 80.93,129.18 81.31,134.21 81.7,139.3 82.08,144.42 82.47,149.53 82.86,154.6 83.24,159.61 83.63,164.54 84.02,169.35 84.4,174.03 84.79,178.54 85.17,182.85 85.56,186.96 85.95,190.86 86.33,194.54 86.72,197.99 87.11,201.2 87.49,204.15 87.88,206.82 88.27,209.25 88.65,211.44 89.04,213.4 89.42,215.12 89.81,216.62 90.2,217.88 90.58,218.93 90.97,219.78 91.36,220.46 91.74,220.98 92.13,221.34 92.51,221.55 92.9,221.62 93.29,221.57 93.67,221.42 94.06,221.18 94.45,220.86 94.83,220.47 95.22,220.01 95.61,219.5 95.99,218.95 96.38,218.36 96.76,217.75 97.15,217.12 97.54,216.47 97.92,215.81 98.31,215.15 98.7,214.48 99.08,213.82 99.47,213.16 99.85,212.51 100.24,211.87 100.63,211.24 101.01,210.62 101.4,210.01 101.79,209.42 102.17,208.84 102.56,208.28 102.94,207.73 103.33,207.2 103.72,206.7 104.1,206.21 104.49,205.74 104.88,205.29 105.26,204.87 105.65,204.47 106.04,204.09 106.42,203.74 106.81,203.42 107.19,203.12 107.58,202.86 107.97,202.61 108.35,202.4 108.74,202.22 109.13,202.07 109.51,201.94 109.9,201.85 110.28,201.78 110.67,201.73 111.06,201.72 111.44,201.73 111.83,201.77 112.22,201.83 112.6,201.91 112.99,202.01 113.38,202.13 113.76,202.27 114.15,202.43 114.53,202.6 114.92,202.78 115.31,202.97 115.69,203.16 116.08,203.36 116.47,203.56 116.85,203.76 117.24,203.95 117.62,204.14 118.01,204.31 118.4,204.48 118.78,204.64 119.17,204.78 119.56,204.91 119.94,205.02 120.33,205.12 120.71,205.2 121.1,205.27 121.49,205.33 121.87,205.38 122.26,205.42 122.65,205.45 123.03,205.47 123.42,205.49 123.81,205.51 124.19,205.52 124.58,205.54 124.96,205.56 125.35,205.58 125.74,205.6 126.12,205.62 126.51,205.65 126.9,205.67 127.28,205.7 127.67,205.73 128.05,205.76 128.44,205.78 128.83,205.8 129.21,205.81 129.6,205.82 129.99,205.82 130.37,205.81 130.76,205.79 131.15,205.77 131.53,205.73 131.92,205.68 132.3,205.61 132.69,205.53 133.08,205.44 133.46,205.34 133.85,205.22 134.24,205.08 134.62,204.92 135.01,204.75 135.39,204.55 135.78,204.33 136.17,204.09 136.55,203.82 136.94,203.53 137.33,203.21 137.71,202.86 138.1,202.49 138.48,202.08 138.87,201.65 139.26,201.19 139.64,200.71 140.03,200.19 140.42,199.66 140.8,199.1 141.19,198.51 141.58,197.92 141.96,197.3 142.35,196.67 142.73,196.02 143.12,195.36 143.51,194.69 143.89,194.01 144.28,193.32 144.67,192.62 145.05,191.93 145.44,191.22 145.82,190.52 146.21,189.81 146.6,189.11 146.98,188.4 147.37,187.7 147.76,187 148.14,186.31 148.53,185.63 148.92,184.96 149.3,184.29 149.69,183.64 150.07,182.99 150.46,182.37 150.85,181.76 151.23,181.16 151.62,180.58 152.01,180.01 152.39,179.46 152.78,178.93 153.16,178.41 153.55,177.9 153.94,177.41 154.32,176.92 154.71,176.45 155.1,175.98 155.48,175.52 155.87,175.07 156.25,174.62 156.64,174.17 157.03,173.72 157.41,173.26 157.8,172.8 158.19,172.34 158.57,171.87 158.96,171.4 159.35,170.92 159.73,170.43 160.12,169.94 160.5,169.45 160.89,168.95 161.28,168.45 161.66,167.94 162.05,167.44 162.44,166.95 162.82,166.46 163.21,165.97 163.59,165.5 163.98,165.04 164.37,164.59 164.75,164.15 165.14,163.73 165.53,163.33 165.91,162.94 166.3,162.57 166.69,162.22 167.07,161.88 167.46,161.56 167.84,161.26 168.23,160.96 168.62,160.68 169,160.42 169.39,160.16 169.78,159.91 170.16,159.66 170.55,159.42 170.93,159.19 171.32,158.95 171.71,158.72 172.09,158.49 172.48,158.25 172.87,158.02 173.25,157.78 173.64,157.53 174.02,157.28 174.41,157.02 174.8,156.76 175.18,156.48 175.57,156.2 175.96,155.91 176.34,155.61 176.73,155.29 177.12,154.97 177.5,154.64 177.89,154.3 178.27,153.96 178.66,153.6 179.05,153.25 179.43,152.89 179.82,152.53 180.21,152.18 180.59,151.83 180.98,151.48 181.36,151.14 181.75,150.82 182.14,150.5 182.52,150.2 182.91,149.92 183.3,149.65 183.68,149.39 184.07,149.14 184.46,148.91 184.84,148.7 185.23,148.49 185.61,148.29 186,148.1 186.39,147.91 186.77,147.73 187.16,147.55 187.55,147.36 187.93,147.17 188.32,146.98 188.7,146.77 189.09,146.56 189.48,146.34 189.86,146.1 190.25,145.85 190.64,145.58 191.02,145.3 191.41,145.01 191.79,144.7 192.18,144.38 192.57,144.04 192.95,143.68 193.34,143.31 193.73,142.93 194.11,142.53 194.5,142.12 194.89,141.7 195.27,141.26 195.66,140.81 196.04,140.36 196.43,139.89 196.82,139.4 197.2,138.91 197.59,138.41 197.98,137.89 198.36,137.36 198.75,136.81 199.13,136.26 199.52,135.69 199.91,135.1 200.29,134.51 200.68,133.9 201.07,133.27 201.45,132.64 201.84,131.99 202.23,131.34 202.61,130.67 203,129.99 203.38,129.31 203.77,128.62 204.16,127.93 204.54,127.24 204.93,126.55 205.32,125.86 205.7,125.18 206.09,124.51 206.47,123.85 206.86,123.19 207.25,122.56 207.63,121.93 208.02,121.32 208.41,120.74 208.79,120.17 209.18,119.62 209.56,119.09 209.95,118.57 210.34,118.08 210.72,117.61 211.11,117.15 211.5,116.71 211.88,116.29 212.27,115.87 212.66,115.47 213.04,115.08 213.43,114.7 213.81,114.32 214.2,113.94 214.59,113.56 214.97,113.18 215.36,112.8 215.75,112.41 216.13,112.02 216.52,111.61 216.9,111.2 217.29,110.77 217.68,110.33 218.06,109.87 218.45,109.4 218.84,108.91 219.22,108.41 219.61,107.9 220,107.37 220.38,106.83 220.77,106.28 221.15,105.71 221.54,105.14 221.93,104.57 222.31,103.99 222.7,103.4 223.09,102.82 223.47,102.24 223.86,101.66 224.24,101.09 224.63,100.52 225.02,99.97 225.4,99.42 225.79,98.88 226.18,98.36 226.56,97.84 226.95,97.34 227.34,96.85 227.72,96.36 228.11,95.89 228.49,95.43 228.88,94.97 229.27,94.53 229.65,94.09 230.04,93.66 230.43,93.23 230.81,92.81 231.2,92.39 231.58,91.98 231.97,91.57 232.36,91.16 232.74,90.76 233.13,90.36 233.52,89.96 233.9,89.56 234.29,89.17 234.67,88.77 235.06,88.38 235.45,87.99 235.83,87.6 236.22,87.21 236.61,86.82 236.99,86.42 237.38,86.03 237.77,85.64 238.15,85.24 238.54,84.84 238.92,84.44 239.31,84.04 239.7,83.63 240.08,83.22 240.47,82.8 240.86,82.38 241.24,81.94 241.63,81.5 242.01,81.05 242.4,80.59 242.79,80.11 243.17,79.61 243.56,79.1 243.95,78.57 244.33,78.02 244.72,77.45 245.11,76.86 245.49,76.24 245.88,75.6 246.26,74.94 246.65,74.27 247.04,73.57 247.42,72.86 247.81,72.14 248.2,71.4 248.58,70.67 248.97,69.93 249.35,69.19 249.74,68.47 250.13,67.75 250.51,67.06 250.9,66.39 251.29,65.74 251.67,65.12 252.06,64.54 252.44,63.98 252.83,63.47 253.22,63 253.6,62.57 253.99,62.17 254.38,61.81 254.76,61.49 255.15,61.2 255.54,60.95 255.92,60.73 256.31,60.53 256.69,60.37 257.08,60.23 257.47,60.11 257.85,60 258.24,59.92 258.63,59.85 259.01,59.79 259.4,59.75 259.78,59.71 260.17,59.68 260.56,59.66 260.94,59.64 261.33,59.62 261.72,59.61 262.1,59.6" stroke-dasharray="none" stroke="rgb(31,120,180)" stroke-width="0.75" opacity="1" stroke-opacity="1" fill="none"/>
          </g>
          <g id="Fig:densplot_01.xyplot.lines.group.9.panel.1.1.1">
            <polyline id="Fig:densplot_01.xyplot.lines.group.9.panel.1.1.1.1" points="64.9,59.6 65.28,59.61 65.67,59.63 66.05,59.65 66.44,59.67 66.82,59.7 67.21,59.74 67.59,59.8 67.98,59.86 68.37,59.94 68.75,60.05 69.14,60.19 69.52,60.35 69.91,60.55 70.29,60.79 70.68,61.09 71.07,61.44 71.45,61.87 71.84,62.38 72.22,62.98 72.61,63.68 72.99,64.49 73.38,65.41 73.77,66.48 74.15,67.72 74.54,69.11 74.92,70.68 75.31,72.42 75.69,74.35 76.08,76.48 76.47,78.82 76.85,81.39 77.24,84.18 77.62,87.17 78.01,90.36 78.39,93.76 78.78,97.35 79.16,101.15 79.55,105.14 79.94,109.28 80.32,113.57 80.71,117.98 81.09,122.49 81.48,127.09 81.86,131.76 82.25,136.47 82.64,141.19 83.02,145.9 83.41,150.58 83.79,155.21 84.18,159.76 84.56,164.19 84.95,168.5 85.34,172.67 85.72,176.69 86.11,180.54 86.49,184.22 86.88,187.7 87.26,190.94 87.65,193.98 88.04,196.8 88.42,199.42 88.81,201.81 89.19,204 89.58,205.96 89.96,207.69 90.35,209.21 90.74,210.55 91.12,211.7 91.51,212.67 91.89,213.48 92.28,214.12 92.66,214.6 93.05,214.95 93.43,215.18 93.82,215.3 94.21,215.33 94.59,215.27 94.98,215.13 95.36,214.92 95.75,214.65 96.13,214.35 96.52,214 96.91,213.63 97.29,213.24 97.68,212.83 98.06,212.41 98.45,211.99 98.83,211.57 99.22,211.15 99.61,210.74 99.99,210.33 100.38,209.94 100.76,209.55 101.15,209.18 101.53,208.82 101.92,208.47 102.31,208.13 102.69,207.81 103.08,207.49 103.46,207.18 103.85,206.88 104.23,206.59 104.62,206.31 105.01,206.03 105.39,205.75 105.78,205.48 106.16,205.22 106.55,204.96 106.93,204.71 107.32,204.47 107.7,204.24 108.09,204.02 108.48,203.82 108.86,203.63 109.25,203.47 109.63,203.33 110.02,203.21 110.4,203.12 110.79,203.06 111.18,203.04 111.56,203.04 111.95,203.07 112.33,203.14 112.72,203.23 113.1,203.36 113.49,203.51 113.88,203.68 114.26,203.87 114.65,204.08 115.03,204.3 115.42,204.54 115.8,204.78 116.19,205.02 116.58,205.27 116.96,205.52 117.35,205.76 117.73,206 118.12,206.24 118.5,206.47 118.89,206.69 119.28,206.91 119.66,207.12 120.05,207.32 120.43,207.51 120.82,207.7 121.2,207.88 121.59,208.05 121.97,208.21 122.36,208.36 122.75,208.5 123.13,208.62 123.52,208.74 123.9,208.85 124.29,208.94 124.67,209.02 125.06,209.1 125.45,209.17 125.83,209.23 126.22,209.28 126.6,209.33 126.99,209.38 127.37,209.43 127.76,209.49 128.15,209.55 128.53,209.62 128.92,209.69 129.3,209.77 129.69,209.86 130.07,209.96 130.46,210.06 130.85,210.17 131.23,210.29 131.62,210.4 132,210.51 132.39,210.62 132.77,210.72 133.16,210.81 133.54,210.89 133.93,210.96 134.32,211.01 134.7,211.03 135.09,211.04 135.47,211.02 135.86,210.99 136.24,210.93 136.63,210.84 137.02,210.74 137.4,210.6 137.79,210.44 138.17,210.26 138.56,210.06 138.94,209.83 139.33,209.58 139.72,209.31 140.1,209.01 140.49,208.69 140.87,208.34 141.26,207.98 141.64,207.59 142.03,207.17 142.42,206.74 142.8,206.27 143.19,205.78 143.57,205.27 143.96,204.72 144.34,204.16 144.73,203.56 145.12,202.94 145.5,202.29 145.89,201.61 146.27,200.91 146.66,200.18 147.04,199.43 147.43,198.65 147.81,197.85 148.2,197.03 148.59,196.19 148.97,195.34 149.36,194.48 149.74,193.61 150.13,192.73 150.51,191.85 150.9,190.97 151.29,190.09 151.67,189.21 152.06,188.34 152.44,187.48 152.83,186.63 153.21,185.79 153.6,184.96 153.99,184.14 154.37,183.34 154.76,182.54 155.14,181.76 155.53,180.98 155.91,180.21 156.3,179.45 156.69,178.7 157.07,177.95 157.46,177.21 157.84,176.47 158.23,175.74 158.61,175.01 159,174.28 159.39,173.55 159.77,172.84 160.16,172.12 160.54,171.41 160.93,170.71 161.31,170.01 161.7,169.33 162.08,168.65 162.47,167.98 162.86,167.33 163.24,166.69 163.63,166.06 164.01,165.44 164.4,164.84 164.78,164.25 165.17,163.68 165.56,163.12 165.94,162.57 166.33,162.04 166.71,161.52 167.1,161.02 167.48,160.52 167.87,160.04 168.26,159.57 168.64,159.11 169.03,158.67 169.41,158.23 169.8,157.8 170.18,157.38 170.57,156.96 170.96,156.55 171.34,156.15 171.73,155.76 172.11,155.37 172.5,154.99 172.88,154.61 173.27,154.23 173.66,153.86 174.04,153.49 174.43,153.13 174.81,152.76 175.2,152.41 175.58,152.06 175.97,151.71 176.35,151.36 176.74,151.02 177.13,150.69 177.51,150.36 177.9,150.03 178.28,149.71 178.67,149.39 179.05,149.08 179.44,148.78 179.83,148.48 180.21,148.18 180.6,147.89 180.98,147.61 181.37,147.33 181.75,147.05 182.14,146.78 182.53,146.52 182.91,146.26 183.3,146.01 183.68,145.76 184.07,145.51 184.45,145.27 184.84,145.04 185.23,144.81 185.61,144.58 186,144.35 186.38,144.12 186.77,143.9 187.15,143.67 187.54,143.44 187.92,143.21 188.31,142.97 188.7,142.72 189.08,142.47 189.47,142.2 189.85,141.93 190.24,141.64 190.62,141.34 191.01,141.02 191.4,140.69 191.78,140.34 192.17,139.98 192.55,139.61 192.94,139.22 193.32,138.82 193.71,138.41 194.1,137.99 194.48,137.56 194.87,137.14 195.25,136.71 195.64,136.29 196.02,135.87 196.41,135.46 196.8,135.06 197.18,134.67 197.57,134.3 197.95,133.94 198.34,133.59 198.72,133.26 199.11,132.94 199.5,132.64 199.88,132.34 200.27,132.05 200.65,131.76 201.04,131.47 201.42,131.17 201.81,130.87 202.19,130.56 202.58,130.23 202.97,129.88 203.35,129.51 203.74,129.11 204.12,128.69 204.51,128.23 204.89,127.76 205.28,127.25 205.67,126.72 206.05,126.15 206.44,125.56 206.82,124.96 207.21,124.33 207.59,123.69 207.98,123.03 208.37,122.37 208.75,121.71 209.14,121.04 209.52,120.38 209.91,119.72 210.29,119.07 210.68,118.44 211.07,117.82 211.45,117.21 211.84,116.63 212.22,116.06 212.61,115.52 212.99,114.99 213.38,114.49 213.77,114.01 214.15,113.56 214.54,113.12 214.92,112.7 215.31,112.31 215.69,111.93 216.08,111.57 216.46,111.22 216.85,110.88 217.24,110.56 217.62,110.24 218.01,109.93 218.39,109.61 218.78,109.3 219.16,108.98 219.55,108.66 219.94,108.32 220.32,107.97 220.71,107.61 221.09,107.23 221.48,106.83 221.86,106.41 222.25,105.97 222.64,105.5 223.02,105.01 223.41,104.5 223.79,103.97 224.18,103.42 224.56,102.84 224.95,102.25 225.34,101.64 225.72,101.01 226.11,100.38 226.49,99.74 226.88,99.09 227.26,98.44 227.65,97.8 228.04,97.16 228.42,96.53 228.81,95.91 229.19,95.3 229.58,94.71 229.96,94.13 230.35,93.58 230.73,93.05 231.12,92.54 231.51,92.06 231.89,91.59 232.28,91.15 232.66,90.73 233.05,90.33 233.43,89.95 233.82,89.59 234.21,89.23 234.59,88.89 234.98,88.56 235.36,88.24 235.75,87.92 236.13,87.61 236.52,87.29 236.91,86.97 237.29,86.65 237.68,86.32 238.06,85.98 238.45,85.64 238.83,85.28 239.22,84.91 239.61,84.53 239.99,84.13 240.38,83.71 240.76,83.28 241.15,82.83 241.53,82.36 241.92,81.88 242.3,81.37 242.69,80.84 243.08,80.29 243.46,79.72 243.85,79.12 244.23,78.5 244.62,77.86 245,77.2 245.39,76.51 245.78,75.81 246.16,75.08 246.55,74.34 246.93,73.59 247.32,72.82 247.7,72.05 248.09,71.28 248.48,70.5 248.86,69.74 249.25,68.98 249.63,68.23 250.02,67.51 250.4,66.8 250.79,66.13 251.18,65.49 251.56,64.88 251.95,64.3 252.33,63.76 252.72,63.26 253.1,62.8 253.49,62.38 253.88,62 254.26,61.66 254.65,61.36 255.03,61.08 255.42,60.84 255.8,60.63 256.19,60.45 256.57,60.3 256.96,60.17 257.35,60.06 257.73,59.97 258.12,59.89 258.5,59.82 258.89,59.77 259.27,59.73 259.66,59.7 260.05,59.67 260.43,59.65 260.82,59.63 261.2,59.62 261.59,59.61 261.97,59.6" stroke-dasharray="none" stroke="rgb(31,120,180)" stroke-width="0.75" opacity="1" stroke-opacity="1" fill="none"/>
          </g>
          <g id="Fig:densplot_01.xyplot.lines.group.10.panel.1.1.1">
            <polyline id="Fig:densplot_01.xyplot.lines.group.10.panel.1.1.1.1" points="64.8,59.61 65.18,59.62 65.57,59.64 65.95,59.66 66.34,59.69 66.72,59.73 67.11,59.77 67.5,59.84 67.88,59.91 68.27,60.01 68.65,60.13 69.04,60.29 69.43,60.48 69.81,60.71 70.2,60.99 70.58,61.33 70.97,61.73 71.36,62.22 71.74,62.8 72.13,63.48 72.51,64.27 72.9,65.19 73.29,66.23 73.67,67.42 74.06,68.8 74.44,70.35 74.83,72.09 75.22,74.01 75.6,76.14 75.99,78.47 76.37,81.01 76.76,83.8 77.14,86.8 77.53,90.02 77.92,93.44 78.3,97.05 78.69,100.86 79.07,104.84 79.46,109.02 79.85,113.33 80.23,117.77 80.62,122.3 81,126.92 81.39,131.6 81.78,136.32 82.16,141.05 82.55,145.77 82.93,150.45 83.32,155.07 83.71,159.61 84.09,164.06 84.48,168.37 84.86,172.54 85.25,176.55 85.64,180.4 86.02,184.07 86.41,187.56 86.79,190.86 87.18,193.93 87.56,196.79 87.95,199.44 88.34,201.89 88.72,204.14 89.11,206.18 89.49,208.03 89.88,209.65 90.27,211.09 90.65,212.34 91.04,213.42 91.42,214.34 91.81,215.1 92.2,215.7 92.58,216.14 92.97,216.45 93.35,216.63 93.74,216.69 94.13,216.64 94.51,216.49 94.9,216.24 95.28,215.9 95.67,215.47 96.06,214.98 96.44,214.43 96.83,213.83 97.21,213.18 97.6,212.49 97.98,211.78 98.37,211.04 98.76,210.3 99.14,209.56 99.53,208.82 99.91,208.09 100.3,207.38 100.69,206.69 101.07,206.04 101.46,205.41 101.84,204.82 102.23,204.27 102.62,203.75 103,203.28 103.39,202.86 103.77,202.47 104.16,202.12 104.55,201.82 104.93,201.55 105.32,201.31 105.7,201.12 106.09,200.96 106.48,200.84 106.86,200.74 107.25,200.67 107.63,200.63 108.02,200.61 108.4,200.62 108.79,200.66 109.18,200.72 109.56,200.79 109.95,200.89 110.33,201.01 110.72,201.14 111.11,201.3 111.49,201.47 111.88,201.66 112.26,201.86 112.65,202.08 113.04,202.31 113.42,202.55 113.81,202.8 114.19,203.06 114.58,203.32 114.97,203.59 115.35,203.86 115.74,204.13 116.12,204.41 116.51,204.68 116.89,204.95 117.28,205.21 117.67,205.47 118.05,205.72 118.44,205.97 118.82,206.21 119.21,206.43 119.6,206.65 119.98,206.86 120.37,207.06 120.75,207.25 121.14,207.43 121.53,207.6 121.91,207.77 122.3,207.93 122.68,208.08 123.07,208.23 123.46,208.38 123.84,208.53 124.23,208.68 124.61,208.84 125,208.99 125.39,209.16 125.77,209.33 126.16,209.5 126.54,209.69 126.93,209.88 127.31,210.07 127.7,210.27 128.09,210.47 128.47,210.67 128.86,210.87 129.24,211.06 129.63,211.24 130.02,211.41 130.4,211.57 130.79,211.71 131.17,211.83 131.56,211.93 131.95,212 132.33,212.05 132.72,212.08 133.1,212.08 133.49,212.06 133.88,212.01 134.26,211.94 134.65,211.84 135.03,211.71 135.42,211.56 135.81,211.39 136.19,211.2 136.58,210.98 136.96,210.75 137.35,210.48 137.73,210.2 138.12,209.89 138.51,209.56 138.89,209.2 139.28,208.82 139.66,208.42 140.05,208 140.44,207.55 140.82,207.08 141.21,206.59 141.59,206.08 141.98,205.55 142.37,205.01 142.75,204.46 143.14,203.89 143.52,203.31 143.91,202.73 144.3,202.14 144.68,201.54 145.07,200.94 145.45,200.34 145.84,199.73 146.23,199.11 146.61,198.49 147,197.87 147.38,197.24 147.77,196.59 148.15,195.94 148.54,195.28 148.93,194.6 149.31,193.92 149.7,193.22 150.08,192.5 150.47,191.78 150.86,191.04 151.24,190.28 151.63,189.52 152.01,188.75 152.4,187.97 152.79,187.18 153.17,186.38 153.56,185.58 153.94,184.77 154.33,183.97 154.72,183.16 155.1,182.35 155.49,181.54 155.87,180.73 156.26,179.92 156.64,179.11 157.03,178.31 157.42,177.51 157.8,176.71 158.19,175.91 158.57,175.11 158.96,174.32 159.35,173.54 159.73,172.75 160.12,171.97 160.5,171.2 160.89,170.44 161.28,169.68 161.66,168.93 162.05,168.19 162.43,167.45 162.82,166.73 163.21,166.03 163.59,165.33 163.98,164.66 164.36,164 164.75,163.36 165.14,162.74 165.52,162.13 165.91,161.55 166.29,160.99 166.68,160.46 167.06,159.95 167.45,159.46 167.84,158.99 168.22,158.54 168.61,158.12 168.99,157.72 169.38,157.33 169.77,156.97 170.15,156.61 170.54,156.27 170.92,155.94 171.31,155.63 171.7,155.31 172.08,155.01 172.47,154.7 172.85,154.4 173.24,154.09 173.63,153.79 174.01,153.48 174.4,153.16 174.78,152.84 175.17,152.51 175.56,152.18 175.94,151.85 176.33,151.51 176.71,151.16 177.1,150.81 177.48,150.46 177.87,150.1 178.26,149.75 178.64,149.39 179.03,149.04 179.41,148.69 179.8,148.35 180.19,148.01 180.57,147.68 180.96,147.36 181.34,147.05 181.73,146.75 182.12,146.47 182.5,146.2 182.89,145.94 183.27,145.69 183.66,145.45 184.05,145.21 184.43,144.99 184.82,144.77 185.2,144.56 185.59,144.34 185.98,144.13 186.36,143.91 186.75,143.68 187.13,143.45 187.52,143.2 187.9,142.93 188.29,142.66 188.68,142.37 189.06,142.06 189.45,141.74 189.83,141.4 190.22,141.04 190.61,140.68 190.99,140.3 191.38,139.91 191.76,139.52 192.15,139.13 192.54,138.73 192.92,138.34 193.31,137.95 193.69,137.57 194.08,137.2 194.47,136.84 194.85,136.49 195.24,136.16 195.62,135.84 196.01,135.54 196.39,135.24 196.78,134.96 197.17,134.69 197.55,134.43 197.94,134.18 198.32,133.92 198.71,133.67 199.1,133.42 199.48,133.16 199.87,132.89 200.25,132.62 200.64,132.32 201.03,132.01 201.41,131.68 201.8,131.33 202.18,130.95 202.57,130.55 202.96,130.12 203.34,129.67 203.73,129.18 204.11,128.68 204.5,128.15 204.89,127.6 205.27,127.02 205.66,126.43 206.04,125.83 206.43,125.2 206.81,124.57 207.2,123.94 207.59,123.3 207.97,122.65 208.36,122.01 208.74,121.37 209.13,120.74 209.52,120.11 209.9,119.5 210.29,118.89 210.67,118.29 211.06,117.71 211.45,117.14 211.83,116.59 212.22,116.05 212.6,115.52 212.99,115 213.38,114.49 213.76,114 214.15,113.52 214.53,113.05 214.92,112.59 215.31,112.14 215.69,111.7 216.08,111.27 216.46,110.85 216.85,110.44 217.23,110.04 217.62,109.65 218.01,109.27 218.39,108.89 218.78,108.51 219.16,108.15 219.55,107.78 219.94,107.42 220.32,107.06 220.71,106.69 221.09,106.32 221.48,105.95 221.87,105.57 222.25,105.17 222.64,104.76 223.02,104.34 223.41,103.91 223.8,103.45 224.18,102.98 224.57,102.49 224.95,101.98 225.34,101.46 225.73,100.92 226.11,100.36 226.5,99.8 226.88,99.22 227.27,98.63 227.65,98.03 228.04,97.43 228.43,96.84 228.81,96.24 229.2,95.65 229.58,95.07 229.97,94.5 230.36,93.94 230.74,93.4 231.13,92.88 231.51,92.37 231.9,91.88 232.29,91.41 232.67,90.96 233.06,90.53 233.44,90.11 233.83,89.71 234.22,89.33 234.6,88.96 234.99,88.59 235.37,88.24 235.76,87.89 236.15,87.54 236.53,87.2 236.92,86.85 237.3,86.51 237.69,86.15 238.07,85.79 238.46,85.43 238.85,85.06 239.23,84.67 239.62,84.28 240,83.88 240.39,83.46 240.78,83.03 241.16,82.59 241.55,82.13 241.93,81.66 242.32,81.17 242.71,80.67 243.09,80.14 243.48,79.59 243.86,79.03 244.25,78.44 244.64,77.83 245.02,77.2 245.41,76.54 245.79,75.87 246.18,75.17 246.56,74.45 246.95,73.72 247.34,72.97 247.72,72.21 248.11,71.45 248.49,70.68 248.88,69.91 249.27,69.16 249.65,68.41 250.04,67.68 250.42,66.97 250.81,66.28 251.2,65.63 251.58,65.01 251.97,64.42 252.35,63.87 252.74,63.35 253.13,62.88 253.51,62.45 253.9,62.06 254.28,61.71 254.67,61.4 255.06,61.12 255.44,60.87 255.83,60.66 256.21,60.48 256.6,60.32 256.98,60.18 257.37,60.07 257.76,59.97 258.14,59.89 258.53,59.83 258.91,59.78 259.3,59.73 259.69,59.7 260.07,59.67 260.46,59.65 260.84,59.63 261.23,59.62 261.62,59.61 262,59.6" stroke-dasharray="none" stroke="rgb(31,120,180)" stroke-width="0.75" opacity="1" stroke-opacity="1" fill="none"/>
          </g>
          <g id="Fig:densplot_01.xyplot.lines.group.11.panel.1.1.1">
            <polyline id="Fig:densplot_01.xyplot.lines.group.11.panel.1.1.1.1" points="64.78,59.6 65.17,59.61 65.55,59.63 65.94,59.64 66.32,59.67 66.71,59.7 67.09,59.74 67.48,59.78 67.87,59.85 68.25,59.92 68.64,60.02 69.02,60.15 69.41,60.3 69.8,60.49 70.18,60.72 70.57,61 70.95,61.33 71.34,61.72 71.73,62.2 72.11,62.77 72.5,63.42 72.88,64.19 73.27,65.07 73.66,66.07 74.04,67.23 74.43,68.56 74.81,70.05 75.2,71.72 75.59,73.57 75.97,75.62 76.36,77.86 76.74,80.34 77.13,83.05 77.52,85.97 77.9,89.11 78.29,92.45 78.67,96 79.06,99.75 79.45,103.72 79.83,107.87 80.22,112.17 80.6,116.62 80.99,121.19 81.38,125.86 81.76,130.61 82.15,135.43 82.53,140.27 82.92,145.11 83.31,149.93 83.69,154.71 84.08,159.41 84.46,164.03 84.85,168.51 85.23,172.85 85.62,177.04 86.01,181.06 86.39,184.91 86.78,188.56 87.16,191.99 87.55,195.19 87.94,198.17 88.32,200.93 88.71,203.48 89.09,205.81 89.48,207.93 89.87,209.81 90.25,211.47 90.64,212.93 91.02,214.2 91.41,215.29 91.8,216.2 92.18,216.94 92.57,217.5 92.95,217.91 93.34,218.18 93.73,218.33 94.11,218.36 94.5,218.29 94.88,218.12 95.27,217.85 95.66,217.5 96.04,217.1 96.43,216.63 96.81,216.12 97.2,215.57 97.59,214.99 97.97,214.37 98.36,213.74 98.74,213.1 99.13,212.45 99.52,211.8 99.9,211.15 100.29,210.5 100.67,209.86 101.06,209.23 101.45,208.61 101.83,208 102.22,207.42 102.6,206.85 102.99,206.3 103.37,205.78 103.76,205.29 104.15,204.82 104.53,204.38 104.92,203.96 105.3,203.58 105.69,203.24 106.08,202.93 106.46,202.65 106.85,202.41 107.23,202.2 107.62,202.03 108.01,201.88 108.39,201.78 108.78,201.71 109.16,201.66 109.55,201.65 109.94,201.66 110.32,201.7 110.71,201.77 111.09,201.87 111.48,201.98 111.87,202.12 112.25,202.28 112.64,202.46 113.02,202.65 113.41,202.86 113.8,203.09 114.18,203.32 114.57,203.57 114.95,203.82 115.34,204.08 115.73,204.34 116.11,204.61 116.5,204.87 116.88,205.14 117.27,205.4 117.66,205.65 118.04,205.9 118.43,206.14 118.81,206.37 119.2,206.6 119.59,206.81 119.97,207.01 120.36,207.21 120.74,207.39 121.13,207.57 121.52,207.74 121.9,207.89 122.29,208.04 122.67,208.18 123.06,208.31 123.44,208.44 123.83,208.55 124.22,208.66 124.6,208.75 124.99,208.83 125.37,208.91 125.76,208.97 126.15,209.01 126.53,209.04 126.92,209.06 127.3,209.06 127.69,209.05 128.08,209.02 128.46,208.98 128.85,208.92 129.23,208.85 129.62,208.77 130.01,208.68 130.39,208.58 130.78,208.48 131.16,208.38 131.55,208.27 131.94,208.17 132.32,208.08 132.71,207.99 133.09,207.91 133.48,207.84 133.87,207.78 134.25,207.72 134.64,207.68 135.02,207.63 135.41,207.59 135.8,207.55 136.18,207.51 136.57,207.46 136.95,207.39 137.34,207.31 137.73,207.2 138.11,207.08 138.5,206.92 138.88,206.73 139.27,206.51 139.66,206.26 140.04,205.96 140.43,205.62 140.81,205.25 141.2,204.84 141.58,204.4 141.97,203.92 142.36,203.41 142.74,202.87 143.13,202.3 143.51,201.72 143.9,201.11 144.29,200.48 144.67,199.85 145.06,199.2 145.44,198.54 145.83,197.87 146.22,197.2 146.6,196.52 146.99,195.85 147.37,195.17 147.76,194.49 148.15,193.82 148.53,193.14 148.92,192.47 149.3,191.79 149.69,191.12 150.08,190.45 150.46,189.77 150.85,189.1 151.23,188.42 151.62,187.74 152.01,187.05 152.39,186.35 152.78,185.65 153.16,184.93 153.55,184.2 153.94,183.45 154.32,182.68 154.71,181.91 155.09,181.11 155.48,180.3 155.87,179.46 156.25,178.62 156.64,177.76 157.02,176.89 157.41,176.01 157.8,175.12 158.18,174.23 158.57,173.35 158.95,172.47 159.34,171.6 159.72,170.75 160.11,169.91 160.5,169.09 160.88,168.29 161.27,167.52 161.65,166.79 162.04,166.08 162.43,165.4 162.81,164.76 163.2,164.14 163.58,163.57 163.97,163.03 164.36,162.53 164.74,162.05 165.13,161.61 165.51,161.2 165.9,160.81 166.29,160.46 166.67,160.12 167.06,159.82 167.44,159.52 167.83,159.25 168.22,158.99 168.6,158.74 168.99,158.5 169.37,158.27 169.76,158.04 170.15,157.82 170.53,157.59 170.92,157.36 171.3,157.13 171.69,156.89 172.08,156.64 172.46,156.39 172.85,156.13 173.23,155.86 173.62,155.58 174.01,155.3 174.39,155.01 174.78,154.71 175.16,154.41 175.55,154.1 175.94,153.79 176.32,153.48 176.71,153.17 177.09,152.85 177.48,152.54 177.87,152.23 178.25,151.91 178.64,151.6 179.02,151.29 179.41,150.97 179.79,150.66 180.18,150.35 180.57,150.03 180.95,149.72 181.34,149.4 181.72,149.08 182.11,148.76 182.5,148.45 182.88,148.13 183.27,147.81 183.65,147.5 184.04,147.19 184.43,146.88 184.81,146.58 185.2,146.28 185.58,146 185.97,145.72 186.36,145.45 186.74,145.19 187.13,144.94 187.51,144.7 187.9,144.46 188.29,144.24 188.67,144.02 189.06,143.8 189.44,143.59 189.83,143.38 190.22,143.16 190.6,142.94 190.99,142.72 191.37,142.48 191.76,142.24 192.15,141.98 192.53,141.7 192.92,141.41 193.3,141.11 193.69,140.79 194.08,140.45 194.46,140.1 194.85,139.74 195.23,139.36 195.62,138.98 196.01,138.58 196.39,138.18 196.78,137.77 197.16,137.35 197.55,136.94 197.93,136.52 198.32,136.1 198.71,135.67 199.09,135.25 199.48,134.83 199.86,134.41 200.25,133.98 200.64,133.55 201.02,133.12 201.41,132.69 201.79,132.25 202.18,131.81 202.57,131.36 202.95,130.9 203.34,130.43 203.72,129.96 204.11,129.47 204.5,128.98 204.88,128.47 205.27,127.95 205.65,127.42 206.04,126.88 206.43,126.32 206.81,125.76 207.2,125.19 207.58,124.6 207.97,124.01 208.36,123.41 208.74,122.81 209.13,122.21 209.51,121.6 209.9,121 210.29,120.4 210.67,119.8 211.06,119.21 211.44,118.64 211.83,118.07 212.22,117.52 212.6,116.98 212.99,116.45 213.37,115.94 213.76,115.45 214.15,114.97 214.53,114.51 214.92,114.07 215.3,113.63 215.69,113.21 216.07,112.8 216.46,112.4 216.85,112.01 217.23,111.62 217.62,111.24 218,110.85 218.39,110.47 218.78,110.08 219.16,109.69 219.55,109.29 219.93,108.88 220.32,108.47 220.71,108.05 221.09,107.61 221.48,107.16 221.86,106.7 222.25,106.23 222.64,105.75 223.02,105.25 223.41,104.74 223.79,104.21 224.18,103.67 224.57,103.12 224.95,102.55 225.34,101.98 225.72,101.39 226.11,100.8 226.5,100.2 226.88,99.59 227.27,98.98 227.65,98.37 228.04,97.76 228.43,97.16 228.81,96.55 229.2,95.96 229.58,95.38 229.97,94.8 230.36,94.25 230.74,93.7 231.13,93.17 231.51,92.66 231.9,92.17 232.29,91.7 232.67,91.24 233.06,90.8 233.44,90.38 233.83,89.98 234.22,89.59 234.6,89.21 234.99,88.85 235.37,88.49 235.76,88.14 236.14,87.8 236.53,87.46 236.92,87.13 237.3,86.79 237.69,86.45 238.07,86.11 238.46,85.76 238.85,85.4 239.23,85.03 239.62,84.65 240,84.25 240.39,83.83 240.78,83.4 241.16,82.95 241.55,82.48 241.93,81.99 242.32,81.47 242.71,80.93 243.09,80.36 243.48,79.77 243.86,79.16 244.25,78.52 244.64,77.85 245.02,77.16 245.41,76.45 245.79,75.71 246.18,74.96 246.57,74.19 246.95,73.42 247.34,72.63 247.72,71.84 248.11,71.05 248.5,70.26 248.88,69.48 249.27,68.72 249.65,67.97 250.04,67.25 250.43,66.55 250.81,65.89 251.2,65.25 251.58,64.65 251.97,64.09 252.36,63.57 252.74,63.08 253.13,62.64 253.51,62.24 253.9,61.88 254.28,61.55 254.67,61.26 255.06,61 255.44,60.77 255.83,60.57 256.21,60.4 256.6,60.26 256.99,60.14 257.37,60.03 257.76,59.94 258.14,59.87 258.53,59.81 258.92,59.76 259.3,59.72 259.69,59.69 260.07,59.66 260.46,59.64 260.85,59.63 261.23,59.61 261.62,59.6 262,59.6" stroke-dasharray="none" stroke="rgb(31,120,180)" stroke-width="0.75" opacity="1" stroke-opacity="1" fill="none"/>
          </g>
          <g id="Fig:densplot_01.xyplot.lines.group.12.panel.1.1.1">
            <polyline id="Fig:densplot_01.xyplot.lines.group.12.panel.1.1.1.1" points="64.84,59.61 65.23,59.62 65.62,59.63 66,59.65 66.39,59.67 66.77,59.71 67.16,59.75 67.54,59.8 67.93,59.87 68.32,59.95 68.7,60.06 69.09,60.19 69.47,60.35 69.86,60.55 70.24,60.8 70.63,61.09 71.02,61.44 71.4,61.87 71.79,62.37 72.17,62.97 72.56,63.66 72.94,64.46 73.33,65.37 73.71,66.43 74.1,67.65 74.49,69.02 74.87,70.57 75.26,72.28 75.64,74.19 76.03,76.28 76.41,78.59 76.8,81.12 77.19,83.86 77.57,86.81 77.96,89.96 78.34,93.3 78.73,96.85 79.11,100.59 79.5,104.53 79.89,108.61 80.27,112.84 80.66,117.19 81.04,121.65 81.43,126.19 81.81,130.81 82.2,135.46 82.59,140.13 82.97,144.79 83.36,149.42 83.74,154 84.13,158.5 84.51,162.9 84.9,167.18 85.29,171.32 85.67,175.32 86.06,179.16 86.44,182.84 86.83,186.32 87.21,189.59 87.6,192.65 87.99,195.52 88.37,198.19 88.76,200.65 89.14,202.92 89.53,204.97 89.91,206.8 90.3,208.45 90.69,209.91 91.07,211.2 91.46,212.32 91.84,213.28 92.23,214.07 92.61,214.71 93,215.22 93.38,215.61 93.77,215.89 94.16,216.07 94.54,216.15 94.93,216.14 95.31,216.05 95.7,215.9 96.08,215.69 96.47,215.43 96.86,215.13 97.24,214.79 97.63,214.42 98.01,214.01 98.4,213.59 98.78,213.14 99.17,212.68 99.56,212.21 99.94,211.73 100.33,211.25 100.71,210.76 101.1,210.28 101.48,209.8 101.87,209.32 102.26,208.85 102.64,208.4 103.03,207.96 103.41,207.54 103.8,207.13 104.18,206.75 104.57,206.39 104.96,206.04 105.34,205.73 105.73,205.44 106.11,205.17 106.5,204.93 106.88,204.7 107.27,204.5 107.66,204.32 108.04,204.16 108.43,204.02 108.81,203.9 109.2,203.79 109.58,203.69 109.97,203.61 110.36,203.53 110.74,203.47 111.13,203.42 111.51,203.39 111.9,203.36 112.28,203.34 112.67,203.33 113.06,203.34 113.44,203.36 113.83,203.39 114.21,203.44 114.6,203.51 114.98,203.59 115.37,203.69 115.75,203.81 116.14,203.95 116.53,204.11 116.91,204.29 117.3,204.49 117.68,204.71 118.07,204.94 118.45,205.2 118.84,205.47 119.23,205.75 119.61,206.05 120,206.35 120.38,206.66 120.77,206.98 121.15,207.3 121.54,207.61 121.93,207.93 122.31,208.24 122.7,208.54 123.08,208.83 123.47,209.11 123.85,209.37 124.24,209.62 124.63,209.85 125.01,210.07 125.4,210.28 125.78,210.46 126.17,210.64 126.55,210.79 126.94,210.93 127.33,211.06 127.71,211.18 128.1,211.28 128.48,211.38 128.87,211.47 129.25,211.55 129.64,211.62 130.03,211.69 130.41,211.75 130.8,211.81 131.18,211.86 131.57,211.91 131.95,211.95 132.34,211.98 132.73,212 133.11,212.01 133.5,212.01 133.88,212 134.27,211.97 134.65,211.92 135.04,211.86 135.42,211.78 135.81,211.68 136.2,211.56 136.58,211.43 136.97,211.27 137.35,211.08 137.74,210.88 138.12,210.65 138.51,210.4 138.9,210.13 139.28,209.84 139.67,209.52 140.05,209.18 140.44,208.81 140.82,208.42 141.21,208.01 141.6,207.58 141.98,207.13 142.37,206.66 142.75,206.16 143.14,205.65 143.52,205.12 143.91,204.57 144.3,204 144.68,203.42 145.07,202.83 145.45,202.23 145.84,201.61 146.22,200.98 146.61,200.35 147,199.7 147.38,199.05 147.77,198.38 148.15,197.7 148.54,197.01 148.92,196.31 149.31,195.59 149.7,194.86 150.08,194.11 150.47,193.34 150.85,192.55 151.24,191.73 151.62,190.9 152.01,190.04 152.4,189.16 152.78,188.25 153.17,187.32 153.55,186.37 153.94,185.41 154.32,184.43 154.71,183.43 155.1,182.43 155.48,181.42 155.87,180.41 156.25,179.4 156.64,178.4 157.02,177.42 157.41,176.45 157.79,175.5 158.18,174.57 158.57,173.67 158.95,172.81 159.34,171.97 159.72,171.17 160.11,170.4 160.49,169.67 160.88,168.97 161.27,168.3 161.65,167.67 162.04,167.07 162.42,166.49 162.81,165.94 163.19,165.41 163.58,164.9 163.97,164.4 164.35,163.92 164.74,163.45 165.12,162.98 165.51,162.53 165.89,162.07 166.28,161.62 166.67,161.17 167.05,160.72 167.44,160.28 167.82,159.83 168.21,159.38 168.59,158.93 168.98,158.48 169.37,158.03 169.75,157.58 170.14,157.14 170.52,156.7 170.91,156.26 171.29,155.82 171.68,155.39 172.07,154.96 172.45,154.54 172.84,154.13 173.22,153.72 173.61,153.32 173.99,152.92 174.38,152.53 174.77,152.15 175.15,151.78 175.54,151.41 175.92,151.05 176.31,150.7 176.69,150.36 177.08,150.03 177.46,149.7 177.85,149.38 178.24,149.07 178.62,148.77 179.01,148.47 179.39,148.19 179.78,147.91 180.16,147.63 180.55,147.36 180.94,147.1 181.32,146.84 181.71,146.58 182.09,146.33 182.48,146.08 182.86,145.83 183.25,145.58 183.64,145.33 184.02,145.08 184.41,144.84 184.79,144.59 185.18,144.35 185.56,144.1 185.95,143.86 186.34,143.62 186.72,143.38 187.11,143.14 187.49,142.91 187.88,142.67 188.26,142.43 188.65,142.19 189.04,141.95 189.42,141.71 189.81,141.46 190.19,141.21 190.58,140.95 190.96,140.69 191.35,140.41 191.74,140.13 192.12,139.84 192.51,139.53 192.89,139.22 193.28,138.9 193.66,138.57 194.05,138.23 194.44,137.88 194.82,137.53 195.21,137.17 195.59,136.81 195.98,136.44 196.36,136.07 196.75,135.69 197.13,135.31 197.52,134.93 197.91,134.54 198.29,134.15 198.68,133.76 199.06,133.36 199.45,132.95 199.83,132.54 200.22,132.12 200.61,131.69 200.99,131.25 201.38,130.81 201.76,130.36 202.15,129.9 202.53,129.44 202.92,128.97 203.31,128.5 203.69,128.01 204.08,127.53 204.46,127.04 204.85,126.54 205.23,126.05 205.62,125.55 206.01,125.04 206.39,124.54 206.78,124.03 207.16,123.52 207.55,123 207.93,122.48 208.32,121.96 208.71,121.44 209.09,120.91 209.48,120.38 209.86,119.85 210.25,119.31 210.63,118.78 211.02,118.25 211.41,117.72 211.79,117.19 212.18,116.67 212.56,116.16 212.95,115.65 213.33,115.16 213.72,114.68 214.11,114.21 214.49,113.75 214.88,113.31 215.26,112.88 215.65,112.46 216.03,112.06 216.42,111.67 216.81,111.3 217.19,110.93 217.58,110.56 217.96,110.2 218.35,109.85 218.73,109.49 219.12,109.13 219.5,108.76 219.89,108.39 220.28,108 220.66,107.6 221.05,107.18 221.43,106.75 221.82,106.3 222.2,105.83 222.59,105.34 222.98,104.83 223.36,104.31 223.75,103.76 224.13,103.2 224.52,102.63 224.9,102.04 225.29,101.43 225.68,100.83 226.06,100.21 226.45,99.59 226.83,98.97 227.22,98.35 227.6,97.74 227.99,97.13 228.38,96.53 228.76,95.94 229.15,95.36 229.53,94.8 229.92,94.26 230.3,93.73 230.69,93.22 231.08,92.72 231.46,92.25 231.85,91.79 232.23,91.35 232.62,90.93 233,90.52 233.39,90.13 233.78,89.75 234.16,89.39 234.55,89.03 234.93,88.68 235.32,88.34 235.7,88.01 236.09,87.68 236.48,87.35 236.86,87.02 237.25,86.69 237.63,86.36 238.02,86.02 238.4,85.67 238.79,85.31 239.17,84.95 239.56,84.57 239.95,84.18 240.33,83.78 240.72,83.36 241.1,82.93 241.49,82.47 241.87,82 242.26,81.51 242.65,81 243.03,80.47 243.42,79.91 243.8,79.33 244.19,78.72 244.57,78.09 244.96,77.44 245.35,76.77 245.73,76.07 246.12,75.35 246.5,74.61 246.89,73.86 247.27,73.09 247.66,72.32 248.05,71.54 248.43,70.76 248.82,69.98 249.2,69.21 249.59,68.46 249.97,67.72 250.36,67.01 250.75,66.32 251.13,65.66 251.52,65.04 251.9,64.45 252.29,63.9 252.67,63.39 253.06,62.91 253.45,62.48 253.83,62.09 254.22,61.74 254.6,61.42 254.99,61.14 255.37,60.9 255.76,60.68 256.15,60.49 256.53,60.33 256.92,60.2 257.3,60.08 257.69,59.98 258.07,59.9 258.46,59.84 258.84,59.78 259.23,59.74 259.62,59.7 260,59.67 260.39,59.65 260.77,59.63 261.16,59.62 261.54,59.61 261.93,59.6" stroke-dasharray="none" stroke="rgb(31,120,180)" stroke-width="0.75" opacity="1" stroke-opacity="1" fill="none"/>
          </g>
        </g>
        <g id="Fig:densplot_01.panel.1.1.off.vp.2">
          <g id="Fig:densplot_01.border.panel.1.1.1">
            <rect id="Fig:densplot_01.border.panel.1.1.1.1" x="50.8" y="48.19" width="225.2" height="185.81" transform="" stroke="rgb(0,0,0)" stroke-dasharray="none" stroke-width="0.75" opacity="1" fill="none" stroke-opacity="1" fill-opacity="0"/>
          </g>
        </g>
        <g id="Fig:densplot_01..1"/>
      </g>
    </g>
  </g>
</svg>